<svg id="Layer_1" data-name="Layer 1" xmlns="http://www.w3.org/2000/svg" viewBox="0 0 792 612"><defs><style>.cls-1{fill:#1598c3;}.cls-2{fill:#010101;}.cls-3{fill:#fff;}</style></defs><title>Untitled-3</title><circle class="cls-1" cx="430.99" cy="283.38" r="59.52"/><path class="cls-2" d="M431,343.38a60,60,0,1,1,60-60A60.07,60.07,0,0,1,431,343.38Zm0-119a59,59,0,1,0,59,59A59.1,59.1,0,0,0,431,224.35Z"/><path class="cls-3" d="M440.27,259.1a15.83,15.83,0,0,1,7.37,11.77,12.78,12.78,0,1,0-7.37-11.77Zm-8.38,26.18A12.79,12.79,0,1,0,419.1,272.5a12.79,12.79,0,0,0,12.79,12.78Zm5.42.87H426.47a16.4,16.4,0,0,0-16.38,16.37v13.27l0,.21.91.28a74.61,74.61,0,0,0,22.26,3.59c12,0,19-3.43,19.44-3.65l.85-.43h.09V302.52a16.38,16.38,0,0,0-16.37-16.37ZM458.47,273H447.7a15.73,15.73,0,0,1-4.86,11,19.43,19.43,0,0,1,13.89,18.61v4.09c10.63-.39,16.76-3.4,17.16-3.6l.85-.44h.1V289.32A16.39,16.39,0,0,0,458.47,273Zm-49-.87a12.76,12.76,0,0,0,6.8-2A15.86,15.86,0,0,1,422.2,260c0-.24,0-.47,0-.71a12.79,12.79,0,1,0-12.78,12.78Zm11.48,11.85A15.79,15.79,0,0,1,416.08,273c-.4,0-.8-.06-1.2-.06H404a16.38,16.38,0,0,0-16.37,16.37v13.27l0,.21.92.28A76.92,76.92,0,0,0,407,306.55v-4a19.44,19.44,0,0,1,13.9-18.61Zm0,0"/></svg>