<svg id="Layer_1" data-name="Layer 1" xmlns="http://www.w3.org/2000/svg" viewBox="0 0 792 612"><defs><style>.cls-1{fill:#ebd468;}.cls-2{fill:#010101;}.cls-3{fill:#fff;}</style></defs><title>Untitled-3</title><circle class="cls-1" cx="392.4" cy="296.11" r="81.08"/><path class="cls-2" d="M392.4,377.85a81.74,81.74,0,1,1,81.74-81.74A81.84,81.84,0,0,1,392.4,377.85Zm0-162.17a80.43,80.43,0,1,0,80.42,80.43A80.52,80.52,0,0,0,392.4,215.68Z"/><path class="cls-3" d="M432.44,288.1V325h22.42V301.07Zm0,0"/><path class="cls-3" d="M332.09,325h22.42V288.08l-22.42,13Zm0,0"/><path class="cls-3" d="M358.47,275.55V324.9h23V304a11.88,11.88,0,0,1,11.88-11.88h.27A11.88,11.88,0,0,1,405.49,304V324.9h23V275.55l-35-29Zm0,0"/></svg>