<svg id="Layer_1" data-name="Layer 1" xmlns="http://www.w3.org/2000/svg" viewBox="0 0 792 612"><defs><style>.cls-1{fill:#484066;}.cls-2{fill:#010101;}.cls-3{fill:#fff;}</style></defs><title>Untitled-3</title><circle class="cls-1" cx="384.13" cy="300.51" r="81.08"/><path class="cls-2" d="M384.13,382.25a81.74,81.74,0,1,1,81.74-81.74A81.83,81.83,0,0,1,384.13,382.25Zm0-162.16a80.43,80.43,0,1,0,80.43,80.42A80.51,80.51,0,0,0,384.13,220.09Z"/><path class="cls-3" d="M389.77,319a14.71,14.71,0,0,1-14.5,0l-32.81-20.13s-3-1.81-3,2.3v20.09c0,10.59,19.26,22,43,22s43-11.41,43-22V300.06c0-3.31-2.1-1.69-2.1-1.69Zm0,0"/><path class="cls-3" d="M437.09,282.88c2.52-1.54,2.52-4.07,0-5.62l-50-25a9.66,9.66,0,0,0-9.16,0l-50,25c-2.52,1.55-2.52,4.08,0,5.62l50,30.66a9.6,9.6,0,0,0,9.16,0"/><path class="cls-3" d="M435,328.33V294.47s0-1.61-.93-1.08a28.39,28.39,0,0,0-3.3,2,2.85,2.85,0,0,0-.59,2.15v30.75a.91.91,0,0,1-.55.75,5.84,5.84,0,1,0,5.9,0,.87.87,0,0,1-.53-.73Zm0,0"/></svg>