<svg id="Layer_1" data-name="Layer 1" xmlns="http://www.w3.org/2000/svg" viewBox="0 0 792 612"><defs><style>.cls-1{fill:#ebd468;}.cls-2{fill:#010101;}.cls-3{fill:#fff;}</style></defs><title>Untitled-3</title><circle class="cls-1" cx="392.4" cy="296.11" r="59.52"/><path class="cls-2" d="M392.4,356.11a60,60,0,1,1,60-60A60.07,60.07,0,0,1,392.4,356.11Zm0-119a59,59,0,1,0,59,59A59.11,59.11,0,0,0,392.4,237.07Z"/><path class="cls-3" d="M421.79,290.23v27.1h16.46V299.75Zm0,0"/><path class="cls-3" d="M348.13,317.33h16.46V290.21l-16.46,9.54Zm0,0"/><path class="cls-3" d="M367.5,281v36.22h16.87V301.88a8.72,8.72,0,0,1,8.72-8.72h.19a8.72,8.72,0,0,1,8.72,8.72v15.36h16.88V281l-25.69-21.31Zm0,0"/></svg>