<svg id="Layer_1" data-name="Layer 1" xmlns="http://www.w3.org/2000/svg" viewBox="0 0 792 612"><defs><style>.cls-1{fill:#5e421b;}.cls-2{fill:#010101;}.cls-3{fill:#fff;}</style></defs><title>Untitled-3</title><circle class="cls-1" cx="397.85" cy="276.88" r="59.52"/><path class="cls-2" d="M397.85,336.88a60,60,0,1,1,60-60A60.07,60.07,0,0,1,397.85,336.88Zm0-119a59,59,0,1,0,59,59A59.1,59.1,0,0,0,397.85,217.84Z"/><path class="cls-3" d="M369.85,300.88a4.2,4.2,0,0,0,4.2,4.21h50.49a4.2,4.2,0,0,0,4.21-4.21V263h-58.9Zm21-27.87a1.58,1.58,0,0,1,1.58-1.58h13.67a1.58,1.58,0,0,1,1.58,1.58v1.05a1.58,1.58,0,0,1-1.58,1.58H392.46a1.58,1.58,0,0,1-1.58-1.58Zm37.87-26.82h-58.9a4.2,4.2,0,0,0-4.21,4.21v6.31a2.11,2.11,0,0,0,2.1,2.1h63.11a2.11,2.11,0,0,0,2.11-2.1V250.4A4.2,4.2,0,0,0,428.75,246.19Z"/></svg>