<svg id="Layer_1" data-name="Layer 1" xmlns="http://www.w3.org/2000/svg" viewBox="0 0 792 612"><defs><style>.cls-1{fill:#e6962c;}.cls-2{fill:#010101;}.cls-3{fill:#fff;}</style></defs><title>Untitled-3</title><circle class="cls-1" cx="400.5" cy="290.65" r="81.08"/><path class="cls-2" d="M400.5,372.39a81.74,81.74,0,1,1,81.74-81.74A81.83,81.83,0,0,1,400.5,372.39Zm0-162.16a80.43,80.43,0,1,0,80.42,80.42A80.52,80.52,0,0,0,400.5,210.23Z"/><path class="cls-3" d="M367.24,250.73h0a3.41,3.41,0,0,0-2.43,1,3.46,3.46,0,0,0-1,2.45v51.92a3.48,3.48,0,0,0,3.46,3.47c8.06,0,21.56,1.69,30.88,11.44V266.69a3.34,3.34,0,0,0-.48-1.76c-7.64-12.31-22.33-14.18-30.41-14.2Zm0,0"/><path class="cls-3" d="M437.85,306.11V254.19a3.47,3.47,0,0,0-3.45-3.46h0c-8.08,0-22.77,1.89-30.42,14.2a3.33,3.33,0,0,0-.47,1.76V321c9.31-9.75,22.81-11.43,30.87-11.44a3.48,3.48,0,0,0,3.47-3.47Zm0,0"/><path class="cls-3" d="M445.73,262.71h-2.51v43.4A8.85,8.85,0,0,1,434.4,315c-6.84,0-18.11,1.35-26.1,8.91,13.81-3.38,28.37-1.18,36.66.71a3.47,3.47,0,0,0,4.24-3.38v-55a3.47,3.47,0,0,0-3.47-3.46Zm0,0"/><path class="cls-3" d="M358.41,306.11v-43.4H355.9a3.46,3.46,0,0,0-3.46,3.46v55a3.46,3.46,0,0,0,4.23,3.38c8.3-1.89,22.85-4.09,36.66-.71-8-7.56-19.26-8.89-26.09-8.91a8.85,8.85,0,0,1-8.83-8.84Zm0,0"/></svg>