<svg id="Layer_1" data-name="Layer 1" xmlns="http://www.w3.org/2000/svg" viewBox="0 0 792 612"><defs><style>.cls-1{fill:#484066;}.cls-2{fill:#010101;}.cls-3{fill:#fff;}</style></defs><title>Untitled-3</title><circle class="cls-1" cx="384.13" cy="300.51" r="59.52"/><path class="cls-2" d="M384.13,360.51a60,60,0,1,1,60-60A60.07,60.07,0,0,1,384.13,360.51Zm0-119a59,59,0,1,0,59,59A59.1,59.1,0,0,0,384.13,241.48Z"/><path class="cls-3" d="M388.27,314.09a10.74,10.74,0,0,1-10.64,0l-24.09-14.77s-2.17-1.33-2.17,1.69v14.75c0,7.77,14.14,16.15,31.58,16.15s31.58-8.38,31.58-16.15V300.18c0-2.43-1.55-1.24-1.55-1.24Zm0,0"/><path class="cls-3" d="M423,287.57c1.85-1.13,1.85-3,0-4.13l-36.7-18.34a7,7,0,0,0-6.73,0l-36.69,18.34c-1.85,1.14-1.85,3,0,4.13l36.69,22.51a7.1,7.1,0,0,0,6.73,0"/><path class="cls-3" d="M421.49,320.93V296.07s0-1.17-.68-.78a19.88,19.88,0,0,0-2.42,1.49,2.09,2.09,0,0,0-.43,1.58v22.57a.67.67,0,0,1-.41.55,4.3,4.3,0,1,0,4.33,0,.62.62,0,0,1-.39-.54Zm0,0"/></svg>