<svg id="Layer_1" data-name="Layer 1" xmlns="http://www.w3.org/2000/svg" viewBox="0 0 792 612"><defs><style>.cls-1{fill:#b2202a;}.cls-2{fill:#010101;}.cls-3{fill:#fff;}</style></defs><title>Untitled-3</title><circle class="cls-1" cx="368.13" cy="277.93" r="59.52"/><path class="cls-2" d="M368.13,337.92a60,60,0,1,1,60-60A60.06,60.06,0,0,1,368.13,337.92Zm0-119a59,59,0,1,0,59,59A59.1,59.1,0,0,0,368.13,218.89Z"/><polygon class="cls-3" points="400.71 260.48 400.71 252.42 397.72 252.42 368.72 238.38 339.72 252.42 336.74 252.42 336.74 260.48 400.71 260.48"/><polygon class="cls-3" points="400.71 289.42 396.62 289.42 396.62 264.66 388.21 264.66 388.21 289.39 384.03 289.39 384.03 264.66 375.62 264.66 375.62 289.42 360.83 289.42 360.83 264.66 352.42 264.66 352.42 289.39 348.24 289.39 348.24 264.66 339.82 264.66 339.82 289.42 336.74 289.42 336.74 297.48 400.71 297.48 400.71 289.42"/><rect class="cls-3" x="333.05" y="301.66" width="71.35" height="8.06"/></svg>