<svg id="Layer_1" data-name="Layer 1" xmlns="http://www.w3.org/2000/svg" viewBox="0 0 792 612"><defs><style>.cls-1{fill:#a1a1aa;}.cls-2{fill:#010101;}.cls-3{fill:#fff;}</style></defs><title>Untitled-3</title><circle class="cls-1" cx="430.99" cy="309.6" r="81.08"/><path class="cls-2" d="M431,391.34a81.74,81.74,0,1,1,81.74-81.74A81.82,81.82,0,0,1,431,391.34Zm0-162.16a80.43,80.43,0,1,0,80.42,80.42A80.52,80.52,0,0,0,431,229.18Z"/><path class="cls-3" d="M436.72,342.56h-7.9a3.72,3.72,0,0,0-3.93,3.93v7.9a3.73,3.73,0,0,0,3.93,3.95h7.9a3.73,3.73,0,0,0,3.95-3.95v-7.9a3.73,3.73,0,0,0-3.95-3.93Zm0,0"/><path class="cls-3" d="M432.77,255.73a35.36,35.36,0,0,0-35.51,35.52,30.8,30.8,0,0,0,.38,5.91c.41,2.37,2.78,3.57,5.15,3.16l7.5-2.36a3.64,3.64,0,0,0,2.75-4.34v-2.37a19.73,19.73,0,1,1,39.46,0c0,6.71-3.95,9.86-11,15.78-6.7,5.53-14.6,11.85-16.57,23.3a3.82,3.82,0,0,0,3.93,4.33h7.9a3.85,3.85,0,0,0,3.95-3.16c1.18-4.74,4.74-7.88,10.66-12.23,7.49-5.92,16.95-13.42,16.95-28a35.36,35.36,0,0,0-35.51-35.52Zm0,0"/></svg>