<svg id="Layer_1" data-name="Layer 1" xmlns="http://www.w3.org/2000/svg" viewBox="0 0 792 612"><defs><style>.cls-1{fill:#5e421b;}.cls-2{fill:#010101;}.cls-3{fill:#fff;}</style></defs><title>Untitled-3</title><circle class="cls-1" cx="397.85" cy="276.88" r="81.08"/><path class="cls-2" d="M397.85,358.62a81.75,81.75,0,1,1,81.74-81.74A81.83,81.83,0,0,1,397.85,358.62Zm0-162.17a80.43,80.43,0,1,0,80.43,80.43A80.52,80.52,0,0,0,397.85,196.45Z"/><path class="cls-3" d="M359.7,309.58a5.72,5.72,0,0,0,5.73,5.73h68.78a5.72,5.72,0,0,0,5.73-5.73V258H359.7Zm28.66-38a2.16,2.16,0,0,1,2.15-2.15h18.63a2.16,2.16,0,0,1,2.15,2.15V273a2.16,2.16,0,0,1-2.15,2.15H390.51a2.16,2.16,0,0,1-2.15-2.15Zm51.58-36.54H359.7A5.72,5.72,0,0,0,354,240.8v8.6a2.87,2.87,0,0,0,2.86,2.87h86a2.88,2.88,0,0,0,2.87-2.87v-8.6A5.73,5.73,0,0,0,439.94,235.07Z"/></svg>