<svg id="Layer_1" data-name="Layer 1" xmlns="http://www.w3.org/2000/svg" viewBox="0 0 792 612"><defs><style>.cls-1{fill:#7ea886;}.cls-2{fill:#010101;}.cls-3{fill:#fff;}</style></defs><title>Untitled-3</title><circle class="cls-1" cx="397.22" cy="296.88" r="81.08"/><path class="cls-2" d="M397.22,378.62A81.75,81.75,0,1,1,479,296.88,81.84,81.84,0,0,1,397.22,378.62Zm0-162.17a80.43,80.43,0,1,0,80.42,80.43A80.52,80.52,0,0,0,397.22,216.45Z"/><path class="cls-3" d="M420,245.31s-8.45,8.2-17.58,11.5c-67.69,24.48-39.14,72.19-38.21,72.35,0,0,3.79-6.61,8.92-10.39,32.53-23.91,39.15-51.44,39.15-51.44s-7.31,33.13-36.25,53.74c-6.39,4.55-10.72,15.75-12.55,26.95,0,0,4.53-1.83,6.48-2.33a36.15,36.15,0,0,1,5-13.94c40.45,4.81,53.7-27.78,55.43-39.15,4.09-26.84-10.42-47.29-10.42-47.29Zm0,0"/></svg>