<svg id="Layer_1" data-name="Layer 1" xmlns="http://www.w3.org/2000/svg" viewBox="0 0 792 612"><defs><style>.cls-1{fill:#7ea886;}.cls-2{fill:#010101;}.cls-3{fill:#fff;}</style></defs><title>Untitled-3</title><circle class="cls-1" cx="397.22" cy="296.88" r="59.52"/><path class="cls-2" d="M397.22,356.87a60,60,0,1,1,60-60A60.06,60.06,0,0,1,397.22,356.87Zm0-119a59,59,0,1,0,59,59A59.1,59.1,0,0,0,397.22,237.84Z"/><path class="cls-3" d="M413.92,259s-6.2,6-12.91,8.45c-49.68,18-28.73,53-28.05,53.1a28.72,28.72,0,0,1,6.55-7.62c23.88-17.55,28.74-37.76,28.74-37.76s-5.36,24.31-26.61,39.44c-4.69,3.34-7.86,11.57-9.21,19.79,0,0,3.33-1.35,4.76-1.71a26.34,26.34,0,0,1,3.69-10.24c29.69,3.54,39.42-20.39,40.69-28.73,3-19.7-7.65-34.72-7.65-34.72Zm0,0"/></svg>