<svg id="Layer_1" data-name="Layer 1" xmlns="http://www.w3.org/2000/svg" viewBox="0 0 792 612"><defs><style>.cls-1{fill:#b2202a;}.cls-2{fill:#010101;}.cls-3{fill:#fff;}</style></defs><title>Untitled-3</title><circle class="cls-1" cx="368.13" cy="277.93" r="81.08"/><path class="cls-2" d="M368.13,359.67a81.75,81.75,0,1,1,81.74-81.75A81.84,81.84,0,0,1,368.13,359.67Zm0-162.17a80.43,80.43,0,1,0,80.42,80.42A80.52,80.52,0,0,0,368.13,197.5Z"/><polygon class="cls-3" points="412.52 254.15 412.52 243.18 408.45 243.18 368.94 224.05 329.43 243.18 325.36 243.18 325.36 254.15 412.52 254.15"/><polygon class="cls-3" points="412.52 293.59 406.95 293.59 406.95 259.85 395.49 259.85 395.49 293.55 389.79 293.55 389.79 259.85 378.33 259.85 378.33 293.59 358.19 293.59 358.19 259.85 346.73 259.85 346.73 293.55 341.03 293.55 341.03 259.85 329.57 259.85 329.57 293.59 325.36 293.59 325.36 304.56 412.52 304.56 412.52 293.59"/><rect class="cls-3" x="320.33" y="310.26" width="97.21" height="10.98"/></svg>