<svg id="Layer_1" data-name="Layer 1" xmlns="http://www.w3.org/2000/svg" viewBox="0 0 792 612"><defs><style>.cls-1{fill:#e6962c;}.cls-2{fill:#010101;}.cls-3{fill:#fff;}</style></defs><title>Untitled-3</title><circle class="cls-1" cx="400.5" cy="290.65" r="59.52"/><path class="cls-2" d="M400.5,350.65a60,60,0,1,1,60-60A60.06,60.06,0,0,1,400.5,350.65Zm0-119a59,59,0,1,0,59,59A59.1,59.1,0,0,0,400.5,231.62Z"/><path class="cls-3" d="M376.08,261.35h0a2.54,2.54,0,0,0-2.53,2.54V302a2.54,2.54,0,0,0,2.54,2.54c5.92,0,15.83,1.25,22.67,8.41V273.06a2.45,2.45,0,0,0-.35-1.29c-5.61-9-16.4-10.41-22.33-10.42Zm0,0"/><path class="cls-3" d="M427.91,302V263.89a2.53,2.53,0,0,0-2.53-2.54h0c-5.93,0-16.71,1.39-22.33,10.42a2.53,2.53,0,0,0-.34,1.29v39.88c6.83-7.15,16.74-8.38,22.66-8.4a2.54,2.54,0,0,0,2.54-2.54Zm0,0"/><path class="cls-3" d="M433.7,270.14h-1.84V302a6.51,6.51,0,0,1-6.48,6.49c-5,0-13.29,1-19.15,6.54,10.13-2.48,20.82-.87,26.9.52a2.58,2.58,0,0,0,2.16-.49,2.53,2.53,0,0,0,.95-2V272.68a2.54,2.54,0,0,0-2.54-2.54Zm0,0"/><path class="cls-3" d="M369.6,302V270.14h-1.84a2.54,2.54,0,0,0-2.54,2.54v40.39a2.55,2.55,0,0,0,3.11,2.48c6.09-1.39,16.77-3,26.91-.52-5.86-5.55-14.14-6.53-19.16-6.54A6.51,6.51,0,0,1,369.6,302Zm0,0"/></svg>