<svg id="Layer_1" data-name="Layer 1" xmlns="http://www.w3.org/2000/svg" viewBox="0 0 792 612"><defs><style>.cls-1{fill:#1598c3;}.cls-2{fill:#010101;}.cls-3{fill:#fff;}</style></defs><title>Untitled-3</title><circle class="cls-1" cx="430.99" cy="283.38" r="81.08"/><path class="cls-2" d="M431,365.12a81.74,81.74,0,1,1,81.74-81.74A81.83,81.83,0,0,1,431,365.12ZM431,203a80.43,80.43,0,1,0,80.42,80.43A80.52,80.52,0,0,0,431,203Z"/><path class="cls-3" d="M443.63,250.3a21.59,21.59,0,0,1,10,16,17.41,17.41,0,1,0-10-16ZM432.22,286a17.42,17.42,0,1,0-17.42-17.41A17.41,17.41,0,0,0,432.22,286Zm7.39,1.19H424.83a22.34,22.34,0,0,0-22.31,22.31v18.08l.05.28,1.25.39a101.65,101.65,0,0,0,30.32,4.88c16.39,0,25.89-4.67,26.48-5l1.16-.58h.12V309.46a22.32,22.32,0,0,0-22.29-22.31Zm28.81-18H453.76a21.45,21.45,0,0,1-6.63,14.95,26.48,26.48,0,0,1,18.93,25.36v5.56c14.48-.53,22.83-4.63,23.38-4.91l1.16-.59h.13V291.47a22.33,22.33,0,0,0-22.31-22.29ZM401.65,268a17.37,17.37,0,0,0,9.27-2.69,21.54,21.54,0,0,1,8.1-13.75c0-.33.05-.65.05-1A17.42,17.42,0,1,0,401.65,268Zm15.65,16.14a21.5,21.5,0,0,1-6.62-14.87c-.54,0-1.09-.08-1.64-.08H394.27A22.32,22.32,0,0,0,372,291.47v18.08l0,.28,1.25.39a104.16,104.16,0,0,0,25.12,4.72v-5.45a26.5,26.5,0,0,1,18.93-25.36Zm0,0"/></svg>