<svg id="Layer_1" data-name="Layer 1" xmlns="http://www.w3.org/2000/svg" viewBox="0 0 792 612"><defs><style>.cls-1{fill:#a1a1aa;}.cls-2{fill:#010101;}.cls-3{fill:#fff;}</style></defs><title>Untitled-3</title><circle class="cls-1" cx="430.99" cy="309.6" r="59.52"/><path class="cls-2" d="M431,369.6a60,60,0,1,1,60-60A60.06,60.06,0,0,1,431,369.6Zm0-119a59,59,0,1,0,59,59A59.1,59.1,0,0,0,431,250.57Z"/><path class="cls-3" d="M435.2,333.8h-5.8a2.73,2.73,0,0,0-2.89,2.88v5.8a2.74,2.74,0,0,0,2.89,2.9h5.8a2.75,2.75,0,0,0,2.9-2.9v-5.8a2.74,2.74,0,0,0-2.9-2.88Zm0,0"/><path class="cls-3" d="M432.3,270.06a26,26,0,0,0-26.07,26.07,22.51,22.51,0,0,0,.28,4.34,3.1,3.1,0,0,0,3.78,2.32l5.5-1.74a2.65,2.65,0,0,0,2-3.18v-1.74a14.49,14.49,0,0,1,29,0c0,4.92-2.9,7.24-8.1,11.58-4.93,4.06-10.73,8.7-12.17,17.1A2.81,2.81,0,0,0,429.4,328h5.8a2.84,2.84,0,0,0,2.9-2.32c.86-3.48,3.48-5.79,7.82-9,5.5-4.35,12.44-9.85,12.44-20.57a26,26,0,0,0-26.06-26.07Zm0,0"/></svg>