<svg id="Layer_1" data-name="Layer 1" xmlns="http://www.w3.org/2000/svg" viewBox="0 0 505 75"><defs><style>.cls-1{fill:none;stroke:#000;}</style></defs><title>Artboard 1</title><path d="M28.68,5.93H19.79V26H13.67V5.93H4.78V1.43h23.9Z"/><path d="M57.77,26H39.66V1.43H57.52v4.5H45.78v5.15H57v4.5H45.78v5.91h12Z"/><path d="M94.92,26H88.33l-2-4.86h-11L73.5,26H67l9.9-24.56H84ZM80.56,7.3,77,16.84h7.56Z"/><path d="M126.42,23.86a19,19,0,0,1-9.65,2.45c-9.54,0-14.29-6.19-14.29-12.53,0-6.55,5.36-12.67,14.76-12.67a17.3,17.3,0,0,1,8.89,2.16V8.74a17.14,17.14,0,0,0-8.46-2.52c-5.22,0-8.89,3.1-8.89,7.45s3.64,7.53,8.75,7.53c3.2,0,5.36-1,8.89-2.7Z"/><path d="M163,26h-6.12V16.05H144.64V26h-6.12V1.43h6.12V11.3h12.24V1.43H163Z"/><path d="M193.85,26H175.74V1.43H193.6v4.5H181.86v5.15h11.2v4.5h-11.2v5.91h12Z"/><path d="M216.71,1.43c5,0,8,3.39,8,7.06,0,2.7-1.4,4.72-4.21,6,2.52,1.26,3.28,4.29,6.73,11.49h-6.73c-2.62-5.26-3.6-10-6.91-10h-1.76V26h-6.12V1.43Zm-4.86,10.08h3.24c1.69,0,3.35-.72,3.35-2.8,0-1.84-1.19-2.78-3.5-2.78h-3.09Z"/><path d="M253.79,7.81c-3.57-1.59-5.69-2.2-7.78-2.2s-3.6.79-3.6,2c0,3.7,12.49,2.66,12.49,11.23,0,4.71-4,7.45-9.43,7.45a16.68,16.68,0,0,1-8.86-2.38V18.64c3.53,2.34,5.69,3.17,8.39,3.17,2.34,0,3.6-.83,3.6-2.27,0-4-12.49-2.55-12.49-11.37,0-4.25,3.67-7.06,9.36-7.06A20.14,20.14,0,0,1,253.79,3Z"/><path d="M306.35,23.86a19,19,0,0,1-9.65,2.45c-9.54,0-14.29-6.19-14.29-12.53,0-6.55,5.36-12.67,14.76-12.67a17.3,17.3,0,0,1,8.89,2.16V8.74a17.17,17.17,0,0,0-8.46-2.52c-5.22,0-8.89,3.1-8.89,7.45s3.63,7.53,8.74,7.53c3.21,0,5.37-1,8.9-2.7Z"/><path d="M331.44,26.31c-9,0-14.08-6.34-14.08-12.6,0-5.94,4.83-12.6,14.08-12.6s14,6.7,14,12.6C345.48,20,340.26,26.31,331.44,26.31Zm0-20.09c-4.68,0-7.78,3-7.78,7.49s3.1,7.49,7.78,7.49,7.74-3,7.74-7.49S336.08,6.22,331.44,6.22Z"/><path d="M375.83,26H357.11V1.43h6.12V21.49h12.6Z"/><path d="M405.17,26H386.45V1.43h6.12V21.49h12.6Z"/><path d="M434,26H415.86V1.43h17.85v4.5H422v5.15h11.19v4.5H422v5.91h12Z"/><path d="M469.28,8.49a21,21,0,0,0-9.18-2.27c-6.66,0-9,4.11-9,7.74,0,4.36,3.42,7.24,8.5,7.24a9,9,0,0,0,4.07-.87V17.45H460.1V13h9.69V23c-1.84,1.91-6.38,3.31-10.34,3.31-8.56,0-14.65-5.22-14.65-12.56,0-7.49,6.05-12.64,14.8-12.64a23.2,23.2,0,0,1,9.68,2Z"/><path d="M500.49,26H482.38V1.43h17.86v4.5H488.5v5.15h11.2v4.5H488.5v5.91h12Z"/><path d="M5.8,61.5c0,7.31,4.56,11.2,10,11.2,4.43,0,6.37-2.88,7.48-5.1a.43.43,0,0,1,.6.1,13.52,13.52,0,0,1-1.61,4.7c-.4.07-.8.2-1.17.3a20.34,20.34,0,0,1-5.4.78,14.09,14.09,0,0,1-8.22-2.29,10.76,10.76,0,0,1-4.73-9.36A11,11,0,0,1,7,53.11a14.3,14.3,0,0,1,9.06-2.85,29.17,29.17,0,0,1,5.91.67,3.06,3.06,0,0,0,.84.1c0,.94.27,2.92.53,4.8a.64.64,0,0,1-.6.06c-.57-2.11-2-4.86-7.15-4.86S5.8,54.38,5.8,61.5Z"/><path d="M56.09,61.73A11.36,11.36,0,0,1,44.48,73.48c-7.38,0-11.77-5.34-11.77-11.38A11.57,11.57,0,0,1,44.55,50.26C52.13,50.26,56.09,55.76,56.09,61.73Zm-20.36-.8c0,5.13,2.44,11.77,9.09,11.77,4.33,0,8.25-2.85,8.25-10.06,0-5.27-2.45-11.61-9-11.61C40.32,51,35.73,53.38,35.73,60.93Z"/><path d="M71.53,67.7c0,1.58.06,3.13.53,3.7.34.36,1.08.77,4,.77,3.72,0,4.83-.24,6.41-3.83a.53.53,0,0,1,.6.14A20,20,0,0,1,81.69,73c-1,0-2.28-.07-3.76-.07s-3.12,0-4.93,0H70.25c-1.34,0-2.35,0-4.23.1A.4.4,0,0,1,66,72.5l1-.13a2.64,2.64,0,0,0,1.58-.67c.36-.51.47-2.18.47-4.13V56.16c0-1.94-.11-3.65-.47-4.12a2.65,2.65,0,0,0-1.58-.68l-1-.13a.37.37,0,0,1,0-.54c1.81.07,2.88.1,4.26.1s2.62,0,4.06-.1c.17.1.17.34,0,.54l-.77.13A2.62,2.62,0,0,0,72,52c-.37.5-.47,2.18-.47,4.12Z"/><path d="M111.49,63.41c0,2.79-.37,5.64-2.18,7.65a9,9,0,0,1-6.51,2.42c-2.62,0-4.77-.44-6.41-1.88S93.84,67.67,93.84,64V56.16c0-1.94-.1-3.65-.47-4.12a2.65,2.65,0,0,0-1.58-.68l-.74-.13a.38.38,0,0,1,0-.54c1.57.07,2.65.1,4,.1s2.62,0,4.13-.1c.17.1.17.34,0,.54l-.84.13a2.62,2.62,0,0,0-1.57.68c-.37.5-.47,2.18-.47,4.12v7.35c0,5.17,1.78,8.86,7,8.86s7-3.79,7-8.89V59.05c0-1.58-.06-5.94-.63-6.95a2.49,2.49,0,0,0-1.68-.74l-1-.13a.42.42,0,0,1,0-.54c1.35.07,2.59.1,3.86.1s2.15,0,3.29-.1a.39.39,0,0,1,0,.54l-.9.17c-.64.13-1.28.4-1.41.74-.54,1.2-.5,5.7-.5,6.91Z"/><path d="M123.63,72.37a3.05,3.05,0,0,0,1.55-.64,5.16,5.16,0,0,0,.63-2.38c.17-1.68.34-4.4.51-7.89.1-2.28.23-5.13.26-7.11a3.43,3.43,0,0,0-.53-2.21,3.55,3.55,0,0,0-1.78-.74l-.67-.17a.37.37,0,0,1,.07-.54c.47,0,1.4.1,2.61.1a23.92,23.92,0,0,0,2.69-.1c.16,2,1.2,4,2.68,7.18L134.54,64c1.27,2.69,1.94,4,2.48,5.07.67-1.11,1.71-3.22,2.88-5.57l2.42-4.86a44.32,44.32,0,0,0,3.46-8,15.37,15.37,0,0,0,2,.1c.64,0,2.12,0,3-.1a.41.41,0,0,1,0,.54l-1,.2a3.4,3.4,0,0,0-1.45.64c-.47.4-.57,1.27-.6,2.72,0,1-.1,3.69-.07,5.16,0,1.82.14,6.34.27,9.43a4.91,4.91,0,0,0,.44,2.42,2.06,2.06,0,0,0,1.14.5l1.14.2a.41.41,0,0,1-.07.54c-1.34-.07-2.75-.1-3.86-.1-1.34,0-2.58,0-4,.1a.37.37,0,0,1-.06-.54l1.07-.17c.77-.13,1.34-.36,1.44-.83a10,10,0,0,0,.14-2.08l-.07-12.35a8.53,8.53,0,0,0-.13-2c-.41.84-1.55,2.95-2.32,4.53L140,65.49c-1.45,2.92-3,6.11-3.56,7.68a.4.4,0,0,1-.5,0c-.68-1.85-2.25-5.14-3-6.81l-3.12-6.88a30.25,30.25,0,0,0-2.19-4.6c-.1.4-.26,4.77-.3,6.17-.1,2-.17,5-.17,7.39a9.08,9.08,0,0,0,.24,3,1.74,1.74,0,0,0,1.31.8l1.27.2a.4.4,0,0,1,0,.54c-1.14-.07-2.45-.1-3.72-.1-1.11,0-2.15,0-3.32.1a.35.35,0,0,1,0-.54Z"/><path d="M163.42,56.93c0-3.79-.3-4.39-.47-4.59a1.68,1.68,0,0,0-1.14-.64l-1.17-.2a.39.39,0,0,1,0-.54c1.48-.1,3.53-.27,6.68-.27a14.11,14.11,0,0,1,6,.91,4.48,4.48,0,0,1,2.62,4.23c0,2.35-1.44,3.65-3.36,4.59-.23.34.24.47.54.54a5.5,5.5,0,0,1,4.53,5.57c0,4.06-2.85,6.54-8.72,6.54-.47,0-1.11,0-1.78-.07s-1.34-.06-2-.06c-1.71,0-2.75,0-4.53.1a.38.38,0,0,1-.06-.54l.9-.17A2.64,2.64,0,0,0,163,71.7c.37-.47.47-2.15.47-4.06ZM166,59.75c0,.91.11.94,1.51.94,3.86,0,5.71-1.11,5.71-4.43,0-3.49-2.45-4.79-5.17-4.79-.84,0-1.71.13-1.81.33s-.24.4-.24,1.14Zm0,7.89c0,1.81.07,3,.61,3.76a3.84,3.84,0,0,0,3,.9c2.86,0,5.24-1.44,5.24-5.06,0-2.79-1.28-5.78-6.68-5.78-2,0-2.15.1-2.15.84Z"/><path d="M192.55,67.57c0,2,.1,3.62.47,4.13a2.61,2.61,0,0,0,1.57.67l.84.13a.42.42,0,0,1-.06.54c-1.75-.07-2.76-.1-4.1-.1s-2.35,0-4.09.1a.41.41,0,0,1-.07-.54l.84-.13a2.64,2.64,0,0,0,1.58-.67c.37-.51.47-2.18.47-4.13V56.16c0-1.94-.1-3.65-.47-4.12a2.65,2.65,0,0,0-1.58-.68l-.8-.13a.37.37,0,0,1,0-.54c1.64.07,2.72.1,4.09.1s2.62,0,4.13-.1c.17.1.17.34,0,.54l-.84.13A2.62,2.62,0,0,0,193,52c-.37.5-.47,2.18-.47,4.12Z"/><path d="M210.6,64c-.81,0-.87,0-1.08.71L207.75,70a5.08,5.08,0,0,0-.37,1.65c0,.37.23.57,1,.7l1.25.2a.45.45,0,0,1,0,.54c-.9-.07-1.94-.07-3.32-.1-1.21,0-2.15,0-3.15.1a.41.41,0,0,1-.07-.54l1.27-.3c.81-.17,1.18-.37,1.78-1.78s1.38-3.29,3-7.45l3.35-8.89a5,5,0,0,0,.54-2.55,3.39,3.39,0,0,0,1.61-1.27.38.38,0,0,1,.44.3c.2.57.6,2,1.71,5.23l4.39,12.75c1,2.92,1.38,3.53,2.76,3.79l1,.17a.41.41,0,0,1,0,.54c-1-.07-2.15-.1-3.89-.1-1.35,0-2.59.06-3.66.1a.38.38,0,0,1-.07-.54l1-.2c.71-.13,1.11-.3,1.11-.8a7.11,7.11,0,0,0-.43-1.78l-1.62-5C217,64,216.94,64,216.2,64Zm5.17-1c.9,0,.87,0,.57-.9l-1.88-5.61a21.7,21.7,0,0,0-.91-2.55c-.13.34-.74,1.62-1.34,3.33l-1.75,4.86c-.33.84-.33.87.64.87Z"/><path d="M267.87,63.41c0,2.79-.37,5.64-2.18,7.65a8.94,8.94,0,0,1-6.51,2.42c-2.62,0-4.76-.44-6.41-1.88s-2.55-3.93-2.55-7.59V56.16c0-1.94-.1-3.65-.47-4.12a2.62,2.62,0,0,0-1.57-.68l-.74-.13a.37.37,0,0,1,0-.54c1.58.07,2.65.1,4,.1s2.62,0,4.13-.1c.16.1.16.34,0,.54l-.84.13a2.65,2.65,0,0,0-1.58.68c-.37.5-.47,2.18-.47,4.12v7.35c0,5.17,1.78,8.86,7,8.86s7.05-3.79,7.05-8.89V59.05c0-1.58-.07-5.94-.64-6.95a2.46,2.46,0,0,0-1.68-.74l-1-.13a.41.41,0,0,1,0-.54c1.34.07,2.58.1,3.86.1s2.15,0,3.29-.1a.41.41,0,0,1,0,.54l-.91.17c-.63.13-1.27.4-1.4.74-.54,1.2-.51,5.7-.51,6.91Z"/><path d="M300.25,67.24c0,1,0,5.13.13,5.9,0,.17-.16.3-.43.34a46.13,46.13,0,0,0-3.29-4.1l-9-10.16c-2.51-2.86-3.18-3.66-3.79-4.2-.33,0-.33.51-.33,2.08v7.59c0,1.57.06,5.93.63,6.94a2.49,2.49,0,0,0,1.68.74l1,.13a.41.41,0,0,1,0,.54c-1.34-.07-2.58-.1-3.85-.1s-2.15,0-3.29.1a.39.39,0,0,1,0-.54l.9-.17c.64-.13,1.28-.4,1.41-.73.54-1.21.5-5.71.5-6.91v-7c0-3.49,0-4.66-.9-5.5a4.62,4.62,0,0,0-2-.78l-.71-.13a.38.38,0,0,1,.07-.54c1.14.07,2.21.1,3.32.1a12.5,12.5,0,0,0,1.81-.1c.67,1.58,3,4.33,5.67,7.25L293,61.6c1.57,1.74,5.09,5.7,6,6.54.17-.13.17-.8.17-1.74V59.05c0-1.58-.07-5.94-.64-6.95a2.49,2.49,0,0,0-1.68-.74l-1-.13a.41.41,0,0,1,0-.54c1.34.07,2.58.1,3.86.1s2.14,0,3.28-.1a.4.4,0,0,1,0,.54l-.91.17c-.64.13-1.27.4-1.41.74-.53,1.2-.5,5.7-.5,6.91Z"/><path d="M318,67.57c0,2,.1,3.62.47,4.13a2.61,2.61,0,0,0,1.57.67l.84.13a.42.42,0,0,1-.06.54c-1.75-.07-2.75-.1-4.1-.1s-2.34,0-4.09.1a.41.41,0,0,1-.07-.54l.84-.13A2.64,2.64,0,0,0,315,71.7c.37-.51.47-2.18.47-4.13V56.16c0-1.94-.1-3.65-.47-4.12a2.65,2.65,0,0,0-1.58-.68l-.8-.13a.37.37,0,0,1,0-.54c1.64.07,2.72.1,4.09.1s2.62,0,4.13-.1c.17.1.17.34,0,.54l-.84.13a2.62,2.62,0,0,0-1.57.68c-.37.5-.47,2.18-.47,4.12Z"/><path d="M333.2,56a31.59,31.59,0,0,0-1.55-3.56,2.21,2.21,0,0,0-1.54-1l-1-.2a.38.38,0,0,1,.07-.54c1,.07,2.12.1,3.52.1s2.49,0,3.73-.1a.37.37,0,0,1,0,.54l-.87.2c-.74.14-1.07.2-1.07.64a30.45,30.45,0,0,0,1.74,4.86l3.29,8.19c.77,1.91,1.37,3.19,1.54,3.59.27-.54.71-1.44,1.48-3.25L344.44,61c1.67-4,2.45-6,3-7.52a5.5,5.5,0,0,0,.37-1.54c0-.24-.37-.4-1.07-.54l-1-.2a.35.35,0,0,1,.07-.54c1.24.07,2.31.1,3.35.1s2.11,0,3.12-.1a.41.41,0,0,1,.07.54l-1,.17a2.16,2.16,0,0,0-1.84,1.37c-.47.88-2.18,4.3-3.63,7.69L344,64.62c-1.34,3-2.85,7-3.42,8.76a.51.51,0,0,1-.3.1.49.49,0,0,1-.3-.1,39.76,39.76,0,0,0-1.58-4.47Z"/><path d="M362.69,56.09c0-2.21-.14-3.45-.47-4a2.37,2.37,0,0,0-1.54-.78l-.64-.13a.38.38,0,0,1,.07-.54c.77,0,1.41.07,2.08.07s1.27,0,1.94,0h6.18c2.14,0,4,0,4.52-.1.14.57.34,3,.51,4.27a.65.65,0,0,1-.61.1c-.36-1.51-.9-2.82-2.75-3.23a15.73,15.73,0,0,0-3.28-.26h-1.85c-1.14,0-1.38.13-1.44.43a10.36,10.36,0,0,0-.17,2.45v5.34c0,1,0,1.14,1,1.14h1.87a12.61,12.61,0,0,0,3.09-.24c.34-.1.71-.43.94-1.27l.34-1.28a.54.54,0,0,1,.6,0c0,.67-.1,2-.1,3.25s.1,2.55.1,3.26a.56.56,0,0,1-.6,0l-.37-1.34a1.62,1.62,0,0,0-.91-1.21,10.37,10.37,0,0,0-3.09-.34h-1.87c-1,0-1,.1-1,1.14V67.7c0,1.58.07,3.13.57,3.7.37.4,1,.77,4,.77,4.06.06,5.57-.37,7-3.83.17-.1.57,0,.6.17A17.15,17.15,0,0,1,376,73c-1.51,0-3-.07-4.43-.07s-2.82,0-4.23,0h-3.19c-1.68,0-3.19,0-4.73.1a.38.38,0,0,1-.07-.54l1.35-.2a2.62,2.62,0,0,0,1.51-.64c.36-.47.5-2.08.5-4Z"/><path d="M388.76,56.09a10.39,10.39,0,0,0-.4-3.72,1.7,1.7,0,0,0-1.48-.8l-.77-.07a.37.37,0,0,1,0-.54c2.59-.23,4.87-.27,7.55-.27a12.14,12.14,0,0,1,5.4,1,5.24,5.24,0,0,1,2.79,4.83c0,3-2.45,4.83-4.16,5.47-.14.23,0,.53.13.84,2.69,4.32,4.46,7,6.85,9.09a3.78,3.78,0,0,0,2.55.84.3.3,0,0,1,0,.4,6.81,6.81,0,0,1-1.38.17c-3.09,0-4.7-.84-7.08-4.23-.87-1.24-2.28-3.52-3.35-5.1a2.22,2.22,0,0,0-2.25-1.14c-1.81,0-1.88.07-1.88.84v3.89c0,2,.1,3.62.47,4.13a2.64,2.64,0,0,0,1.58.67l.67.13A.41.41,0,0,1,394,73c-1.58-.07-2.58-.1-3.93-.1s-2.34,0-4.09.1a.41.41,0,0,1-.07-.54l.84-.13a2.64,2.64,0,0,0,1.58-.67c.37-.51.47-2.18.47-4.13ZM391.31,61a1.37,1.37,0,0,0,.17.87c.13.14.77.24,2.21.24a5.85,5.85,0,0,0,3.63-.87c.93-.74,1.74-1.88,1.74-4.27a5.12,5.12,0,0,0-5.37-5.46,4.56,4.56,0,0,0-2.11.3c-.2.13-.24.53-.27,1.74Z"/><path d="M425.06,50.63c.37.06.74.16,1.14.2a14.86,14.86,0,0,1,.61,3.92.43.43,0,0,1-.61.07c-.57-1.54-1.44-3.79-4.73-3.79a3.76,3.76,0,0,0-4,4c0,2,1.71,3.49,2.88,4.23l3.16,2a7.2,7.2,0,0,1,3.65,6.1c0,3.63-2.75,6.18-7.08,6.18a9.57,9.57,0,0,1-4.93-1.25c-.57-.67-1-2.61-1-4.53a.39.39,0,0,1,.57,0c.6,1.75,2.25,5,5.94,5a4,4,0,0,0,4.23-4.19,5.17,5.17,0,0,0-2.82-4.8l-3-1.84c-1.94-1.21-3.72-3-3.72-5.94s2.45-5.67,6.61-5.67A14.07,14.07,0,0,1,425.06,50.63Z"/><path d="M442.88,67.57c0,2,.1,3.62.47,4.13a2.61,2.61,0,0,0,1.57.67l.84.13a.4.4,0,0,1-.06.54c-1.75-.07-2.75-.1-4.1-.1s-2.35,0-4.09.1a.41.41,0,0,1-.07-.54l.84-.13a2.64,2.64,0,0,0,1.58-.67c.37-.51.47-2.18.47-4.13V56.16c0-1.94-.1-3.65-.47-4.12a2.65,2.65,0,0,0-1.58-.68l-.8-.13a.37.37,0,0,1,0-.54c1.65.07,2.72.1,4.09.1s2.62,0,4.13-.1c.17.1.17.34,0,.54l-.84.13a2.62,2.62,0,0,0-1.57.68c-.37.5-.47,2.18-.47,4.12Z"/><path d="M472.27,50.79a8.59,8.59,0,0,0,2.35-.2,1.34,1.34,0,0,0,.74-.67.41.41,0,0,1,.47.1,18.94,18.94,0,0,0-.51,4.83.44.44,0,0,1-.6.07,4.34,4.34,0,0,0-.91-2.45c-.87-.74-2.14-.9-4-.9h-2.31c-1,0-1,0-1,1.31V67.64c0,1.94.1,3.59.47,4.09a2.58,2.58,0,0,0,1.57.64l1.14.13a.37.37,0,0,1,0,.54c-1.44-.07-2.68-.1-4.4-.1-1.94,0-3.32,0-4.69.1a.38.38,0,0,1,0-.54l1.48-.17a2.25,2.25,0,0,0,1.48-.6c.37-.47.47-2.15.47-4.09V52.88c0-1.28,0-1.31-1-1.31h-1.95c-2.08,0-3.52.1-4.23.83a8.92,8.92,0,0,0-1.58,2.39c-.2.06-.53,0-.6-.24A25.89,25.89,0,0,0,455.8,50a.38.38,0,0,1,.47,0,1,1,0,0,0,.57.6,10.83,10.83,0,0,0,2.41.23Z"/><path d="M494.35,67.64c0,1.94.1,3.59.47,4.09a2.49,2.49,0,0,0,1.57.6l1.38.17a.38.38,0,0,1-.07.54c-1.37-.07-2.71-.1-4.53-.1-1.47,0-2.61,0-4.39.1-.17-.07-.2-.4-.07-.54l1.14-.17a2.48,2.48,0,0,0,1.48-.6c.37-.47.47-2.15.47-4.09V66.13a12,12,0,0,0-.1-1.68,10.86,10.86,0,0,0-1-2.48L487.3,55a11.4,11.4,0,0,0-1.78-2.92,3.11,3.11,0,0,0-1.44-.67l-.91-.2c-.13-.17-.1-.47.07-.54.94.07,2.22.1,3.63.1s2.68,0,3.69-.1a.35.35,0,0,1,0,.54l-1.07.27c-.54.13-.81.27-.81.5a10.32,10.32,0,0,0,1.11,2.79c1.27,2.61,2.51,5.2,3.89,7.75,1.14-2,2.21-4,3.35-6A22.65,22.65,0,0,0,499.18,52c0-.23-.4-.4-1-.53l-1.08-.24a.38.38,0,0,1,.07-.54c1.21.07,2.18.1,3.22.1s2,0,2.92-.1a.38.38,0,0,1,.07.54l-1,.27a2.36,2.36,0,0,0-1.68,1.21c-1.68,2.38-3.12,5-4.6,7.48a11.18,11.18,0,0,0-1.61,3.52,17.15,17.15,0,0,0-.13,2.38Z"/><line class="cls-1" x1="2" y1="37.99" x2="501.27" y2="37.99"/></svg>