<svg id="Layer_1" data-name="Layer 1" xmlns="http://www.w3.org/2000/svg" viewBox="0 0 400 64"><title>Artboard 1</title><path d="M13.87,6l6.88,25.81L29.23,6H37.5L46,31.85,52.87,6H63.74L51.81,46H41.21L33.37,22.84,25.52,46H14.92L3,6Z"/><path d="M65.38,18.81H75v4.45a11,11,0,0,1,3.77-3.73,10.05,10.05,0,0,1,5.19-1.3h.82a5.94,5.94,0,0,1,1,.1V27.5a9.22,9.22,0,0,0-4.14-.95,6.18,6.18,0,0,0-5,2A8.82,8.82,0,0,0,75,34.34V46H65.38Z"/><path d="M88.91,8.37a5.08,5.08,0,0,1,.43-2.09,5.38,5.38,0,0,1,2.89-2.89,5.29,5.29,0,0,1,4.18,0A5.47,5.47,0,0,1,99.3,6.28a5.41,5.41,0,0,1,0,4.18,5.47,5.47,0,0,1-2.89,2.89,5.29,5.29,0,0,1-4.18,0,5.38,5.38,0,0,1-2.89-2.89A5.08,5.08,0,0,1,88.91,8.37ZM99.14,18.81V46H89.55V18.81Z"/><path d="M115.89,26.81V46H106.3V26.81h-3.18v-8h3.18V10.65h9.59v8.16h5.46v8Z"/><path d="M135.71,6V37.2h12.46V46H125.32V6Z"/><path d="M173.08,18.81h9.64V46h-9.64V43a10.08,10.08,0,0,1-8.33,3.87,13.45,13.45,0,0,1-5.46-1.09,13.09,13.09,0,0,1-4.34-3,13.92,13.92,0,0,1-2.89-4.61,15.7,15.7,0,0,1-1-5.77,15.33,15.33,0,0,1,1-5.54,14.29,14.29,0,0,1,2.81-4.59,13.27,13.27,0,0,1,4.3-3.1A13.06,13.06,0,0,1,164.65,18a11.11,11.11,0,0,1,8.43,3.55ZM161,32.33a6.27,6.27,0,0,0,.48,2.46,6.41,6.41,0,0,0,1.3,2,5.7,5.7,0,0,0,2,1.32,6.27,6.27,0,0,0,2.46.48,6.14,6.14,0,0,0,2.41-.48,5.7,5.7,0,0,0,2-1.32,7,7,0,0,0,1.33-2,5.82,5.82,0,0,0,.5-2.39,6,6,0,0,0-.5-2.41,6.87,6.87,0,0,0-1.33-2,5.84,5.84,0,0,0-2-1.32,6.14,6.14,0,0,0-2.41-.48,6.27,6.27,0,0,0-2.46.48,5.84,5.84,0,0,0-2,1.32,6.54,6.54,0,0,0-1.3,1.94A5.76,5.76,0,0,0,161,32.33Z"/><path d="M188.71,18.81h9.59v4.45a11,11,0,0,1,3.77-3.73,10.05,10.05,0,0,1,5.19-1.3h.82a5.94,5.94,0,0,1,1,.1V27.5a9.25,9.25,0,0,0-4.14-.95,6.15,6.15,0,0,0-5,2,8.82,8.82,0,0,0-1.67,5.8V46h-9.59Z"/><path d="M243.56,18.81V44.14a28,28,0,0,1-.26,4.09,17.77,17.77,0,0,1-.74,3.18,10.23,10.23,0,0,1-2,3.26,13.5,13.5,0,0,1-3.26,2.62A17.51,17.51,0,0,1,233,59a20.63,20.63,0,0,1-5.22.63,20.25,20.25,0,0,1-5.83-.79,15.81,15.81,0,0,1-4.64-2.2A12.89,12.89,0,0,1,214,53.39a10.94,10.94,0,0,1-1.69-4.1h10.81q1,2.7,4.56,2.7a6.09,6.09,0,0,0,4.63-1.7A6.54,6.54,0,0,0,234,45.58V43a16.53,16.53,0,0,1-2,1.67,12.18,12.18,0,0,1-2,1.09,9.24,9.24,0,0,1-2.12.6,14.1,14.1,0,0,1-2.43.19,13.94,13.94,0,0,1-5.36-1,12.4,12.4,0,0,1-7-7.13,15.32,15.32,0,0,1-1-5.59,15.74,15.74,0,0,1,1.06-5.8A15,15,0,0,1,216,22.34a13.23,13.23,0,0,1,4.35-3.13,13.08,13.08,0,0,1,5.48-1.14,10.54,10.54,0,0,1,8.11,3.6V18.81ZM222.05,32.27a6.47,6.47,0,0,0,.47,2.47,6.25,6.25,0,0,0,1.3,2,5.82,5.82,0,0,0,2,1.33,6.29,6.29,0,0,0,2.47.48,6.14,6.14,0,0,0,2.41-.48,5.82,5.82,0,0,0,2-1.33,6.69,6.69,0,0,0,1.33-2,6,6,0,0,0,.5-2.41,5.91,5.91,0,0,0-.5-2.44,6.56,6.56,0,0,0-1.36-2,6.17,6.17,0,0,0-4.34-1.81,5.67,5.67,0,0,0-2.39.51,7,7,0,0,0-2,1.32,6.49,6.49,0,0,0-1.35,1.94A5.61,5.61,0,0,0,222.05,32.27Z"/><path d="M258.83,34q0,6.21,5.83,6.2a5.19,5.19,0,0,0,4.71-2.54h9.28Q275.84,47,264.6,47a18.42,18.42,0,0,1-6.3-1A14.13,14.13,0,0,1,253.39,43a13,13,0,0,1-3.15-4.56,15.18,15.18,0,0,1-1.11-5.93,16.72,16.72,0,0,1,1.06-6.12,12.74,12.74,0,0,1,3-4.64A13.48,13.48,0,0,1,258,18.84a17.94,17.94,0,0,1,6.28-1,17.49,17.49,0,0,1,6.2,1,12.63,12.63,0,0,1,4.67,3,13.05,13.05,0,0,1,2.91,4.8A19,19,0,0,1,279,33v1Zm11.23-5.56a5.74,5.74,0,0,0-2-3.24,6.07,6.07,0,0,0-7.23,0,5.28,5.28,0,0,0-1.78,3.29Z"/><path d="M284.85,46V6h10.39l19.18,24.43V6h10.34V46H314.42L295.24,21.57V46Z"/><path d="M342.25,26.81,327.67,6h12.41L347.5,17,354.86,6h12.4L352.64,26.81V46H342.25Z"/><path d="M396.25,19.39A11.3,11.3,0,0,0,383,15.84a10.36,10.36,0,0,0-5.67,5.78,11.34,11.34,0,0,0-.82,4.35,11.52,11.52,0,0,0,.82,4.4A10.58,10.58,0,0,0,387.3,37a12,12,0,0,0,8.95-4.24V45.1l-1.05.37a30.78,30.78,0,0,1-4.46,1.25,21.92,21.92,0,0,1-4.08.39,20.84,20.84,0,0,1-14.6-6,21.84,21.84,0,0,1-4.64-6.73,20.63,20.63,0,0,1-1.75-8.51,20.4,20.4,0,0,1,1.73-8.45A21.12,21.12,0,0,1,386.71,4.92a21.76,21.76,0,0,1,4.7.51A28.45,28.45,0,0,1,396.25,7Z"/></svg>