<svg id="Layer_1" data-name="Layer 1" xmlns="http://www.w3.org/2000/svg" viewBox="0 0 505 75"><title>Artboard 1</title><path d="M149.06,27.19A12.47,12.47,0,0,1,145,17.45a12.4,12.4,0,0,1,3.86-9c2.38-2.18,5.51-3.5,10.43-3.5a32.26,32.26,0,0,1,4.78.33c1.26.16,2.31.46,3.3.56.37,0,.5.2.5.4s-.1.66-.17,1.81,0,2.91-.09,3.57c0,.49-.1.75-.4.75s-.33-.26-.33-.72a4.69,4.69,0,0,0-1.29-3c-1.09-1.15-3.66-2-6.7-2a8.59,8.59,0,0,0-6.2,2c-2.41,2.21-3,5.35-3,8.55,0,7.86,6,11.75,10.4,11.75,2.93,0,4.72-.33,6-1.85a5.41,5.41,0,0,0,1.12-2.18c.1-.52.16-.66.43-.66s.3.24.3.5a31.57,31.57,0,0,1-.73,4.39,1.19,1.19,0,0,1-.86,1,19.36,19.36,0,0,1-5.94.76C155.86,30.79,152.06,29.79,149.06,27.19Z"/><path d="M175,14.94c0-5,0-5.94-.06-7s-.33-1.65-1.42-1.89A7.55,7.55,0,0,0,172.19,6c-.36,0-.56-.07-.56-.3s.23-.3.73-.3l2.67,0c.86,0,1.62.07,2.08.07,1.06,0,7.62,0,8.25,0a12.81,12.81,0,0,0,1.42-.2,3.16,3.16,0,0,1,.53-.13c.16,0,.2.13.2.29a20.87,20.87,0,0,0-.27,2.15c0,.33-.1,1.78-.16,2.18,0,.16-.1.36-.33.36s-.3-.16-.3-.46a3.46,3.46,0,0,0-.2-1.19c-.23-.59-.56-1-2.21-1.19-.56-.06-4-.13-4.69-.13-.16,0-.23.1-.23.33V15.8c0,.23,0,.36.23.36.73,0,4.53,0,5.28-.06a2.33,2.33,0,0,0,1.59-.5c.23-.26.36-.43.53-.43s.23.07.23.27-.13.72-.27,2.41c0,.66-.13,2-.13,2.21s0,.63-.3.63-.29-.14-.29-.3c0-.33,0-.76-.13-1.19-.17-.66-.63-1.16-1.85-1.29-.63-.06-3.9-.1-4.69-.1-.16,0-.2.14-.2.33v2.61c0,1.12,0,4.16,0,5.12.07,2.27.6,2.77,4,2.77a8.33,8.33,0,0,0,3.11-.4c.85-.39,1.25-1.09,1.48-2.44.07-.36.13-.49.36-.49s.27.26.27.59a26.56,26.56,0,0,1-.43,3.66c-.23.86-.53.86-1.78.86-2.48,0-4.29-.06-5.71-.1s-2.45-.1-3.44-.1c-.36,0-1.09,0-1.88,0s-1.61.06-2.27.06c-.43,0-.66-.1-.66-.33s.13-.26.52-.26a5.8,5.8,0,0,0,1.19-.13c.66-.14.83-.86,1-1.82.16-1.38.16-4,.16-7Z"/><path d="M197.67,25.83c.06,2.58.49,3.44,1.15,3.67a5.2,5.2,0,0,0,1.72.23c.36,0,.56.06.56.26s-.3.33-.76.33c-2.14,0-3.46-.1-4.09-.1-.3,0-1.85.1-3.57.1-.42,0-.72,0-.72-.33s.2-.26.53-.26a5.48,5.48,0,0,0,1.48-.17c.86-.26,1-1.22,1-4.09L195.29,6c0-.66.1-1.12.43-1.12s.66.43,1.22,1c.4.43,5.41,5.71,10.23,10.5,2.25,2.24,6.7,7,7.26,7.52h.17l-.33-14.82c0-2-.33-2.64-1.12-3A5.63,5.63,0,0,0,211.4,6c-.4,0-.53-.1-.53-.3s.36-.3.86-.3c1.71,0,3.3.1,4,.1.36,0,1.62-.1,3.24-.1.43,0,.76,0,.76.3s-.2.3-.6.3a4,4,0,0,0-1,.09c-.92.27-1.19,1-1.22,2.81l-.36,20.83c0,.72-.13,1-.43,1s-.76-.36-1.12-.73c-2.08-2-6.31-6.3-9.74-9.7-3.6-3.57-7.26-7.59-7.86-8.22h-.09Z"/><path d="M231.46,7.22l-4.92.13c-1.91.07-2.7.23-3.2,1a4,4,0,0,0-.56,1.15c-.07.27-.17.4-.36.4s-.3-.17-.3-.53c0-.53.63-3.53.69-3.79.1-.43.2-.63.4-.63a7.65,7.65,0,0,0,1.42.4c1,.09,2.21.16,3.3.16H241a17.16,17.16,0,0,0,2.28-.16,8.08,8.08,0,0,1,.89-.17c.23,0,.26.2.26.69,0,.7-.1,3-.1,3.83,0,.33-.1.53-.29.53s-.33-.17-.37-.66l0-.36c-.07-.86-1-1.79-3.9-1.85l-4.15-.1V20.75c0,3,0,5.65.16,7.06.1.93.3,1.65,1.29,1.79a15.24,15.24,0,0,0,1.68.13c.36,0,.53.1.53.26s-.26.33-.63.33c-2.18,0-4.26-.1-5.18-.1-.76,0-2.84.1-4.16.1-.43,0-.66-.1-.66-.33s.13-.26.53-.26a5.8,5.8,0,0,0,1.19-.13c.66-.14.86-.86.95-1.82.17-1.38.17-4,.17-7Z"/><path d="M250.5,14.94c0-5,0-5.94-.07-7S250.1,6.3,249,6.06A7.55,7.55,0,0,0,247.73,6c-.37,0-.56-.07-.56-.3s.23-.3.72-.3l2.68,0c.85,0,1.61.07,2.08.07,1,0,7.62,0,8.25,0a13.59,13.59,0,0,0,1.42-.2,3.3,3.3,0,0,1,.52-.13c.17,0,.2.13.2.29s-.16.63-.26,2.15c0,.33-.1,1.78-.17,2.18,0,.16-.1.36-.33.36s-.29-.16-.29-.46a3.72,3.72,0,0,0-.2-1.19c-.23-.59-.56-1-2.21-1.19-.56-.06-4-.13-4.69-.13-.17,0-.23.1-.23.33V15.8c0,.23,0,.36.23.36.73,0,4.52,0,5.28-.06s1.29-.17,1.58-.5.37-.43.53-.43.23.07.23.27-.13.72-.26,2.41c0,.66-.13,2-.13,2.21s0,.63-.3.63a.27.27,0,0,1-.3-.3,8.11,8.11,0,0,0-.13-1.19c-.16-.66-.63-1.16-1.85-1.29-.62-.06-3.89-.1-4.68-.1-.17,0-.2.14-.2.33v2.61c0,1.12,0,4.16,0,5.12.06,2.27.59,2.77,4,2.77a8.28,8.28,0,0,0,3.1-.4c.86-.39,1.26-1.09,1.49-2.44.06-.36.13-.49.36-.49s.26.26.26.59a26.58,26.58,0,0,1-.42,3.66c-.24.86-.53.86-1.79.86-2.47,0-4.29-.06-5.71-.1s-2.44-.1-3.43-.1c-.36,0-1.09,0-1.88,0s-1.62.06-2.28.06c-.43,0-.66-.1-.66-.33s.13-.26.53-.26a5.8,5.8,0,0,0,1.19-.13c.66-.14.82-.86,1-1.82.17-1.38.17-4,.17-7Z"/><path d="M271.36,14.94c0-5,0-5.94-.07-7S271,6.3,269.87,6.06A7.39,7.39,0,0,0,268.58,6c-.36,0-.56-.07-.56-.3s.23-.3.73-.3c1.75,0,3.83.1,4.52.1,1.12,0,3.63-.1,4.65-.1A10.6,10.6,0,0,1,284,6.79a5.73,5.73,0,0,1,2.24,4.52c0,2.44-1,4.69-4.36,7.4,2.94,3.69,5.22,6.63,7.17,8.68a6.57,6.57,0,0,0,3.69,2.24,4.93,4.93,0,0,0,.93.1c.26,0,.39.1.39.26s-.23.33-.62.33H290.3a6.74,6.74,0,0,1-3.53-.62c-1.42-.76-2.67-2.31-4.52-4.86-1.32-1.81-2.84-4.06-3.27-4.55a.67.67,0,0,0-.59-.23L275.51,20c-.16,0-.26.07-.26.27v.46c0,3.07,0,5.68.17,7.06.09,1,.29,1.68,1.28,1.82.5.06,1.22.13,1.62.13s.4.1.4.26-.23.33-.66.33c-1.92,0-4.36-.1-4.85-.1s-2.71.1-4,.1c-.43,0-.66-.1-.66-.33s.13-.26.53-.26a5.69,5.69,0,0,0,1.18-.13c.66-.14.83-.86,1-1.82.17-1.38.17-4,.17-7Zm3.89,2.61c0,.36.07.49.3.59a8.38,8.38,0,0,0,2.51.33,3.3,3.3,0,0,0,2.34-.56c1-.72,2-2.24,2-4.95,0-4.68-3.11-6-5.05-6a7.76,7.76,0,0,0-1.75.13c-.23.07-.3.2-.3.47Z"/><path d="M302.57,17.85c0-5.65,3.73-12.94,13.63-12.94,8.22,0,13.34,4.78,13.34,12.34s-5.28,13.54-13.67,13.54C306.4,30.79,302.57,23.69,302.57,17.85Zm22.35.62c0-7.39-4.26-12-9.67-12-3.8,0-8.12,2.12-8.12,10.33,0,6.87,3.79,12.31,10.13,12.31C319.57,29.13,324.92,28,324.92,18.47Z"/><path d="M338.28,25.83c.07,2.58.49,3.44,1.15,3.67a5.23,5.23,0,0,0,1.72.23c.36,0,.56.06.56.26s-.3.33-.76.33c-2.14,0-3.46-.1-4.09-.1-.3,0-1.85.1-3.57.1-.42,0-.72,0-.72-.33s.2-.26.53-.26a5.48,5.48,0,0,0,1.48-.17c.86-.26,1-1.22,1-4.09L335.9,6c0-.66.1-1.12.43-1.12s.66.43,1.22,1c.4.43,5.42,5.71,10.24,10.5,2.24,2.24,6.69,7,7.25,7.52h.17l-.33-14.82c0-2-.33-2.64-1.12-3A5.63,5.63,0,0,0,352,6c-.4,0-.53-.1-.53-.3s.36-.3.86-.3c1.71,0,3.3.1,4,.1.37,0,1.62-.1,3.24-.1.43,0,.76,0,.76.3s-.2.3-.6.3a4,4,0,0,0-1,.09c-.92.27-1.19,1-1.22,2.81l-.36,20.83c0,.72-.13,1-.43,1s-.76-.36-1.12-.73c-2.08-2-6.31-6.3-9.74-9.7-3.6-3.57-7.26-7.59-7.85-8.22h-.1Z"/><path d="M25.76,55.47a.2.2,0,0,0,.2-.23v-.7c0-5,0-5.94-.07-7s-.33-1.65-1.42-1.88a7.25,7.25,0,0,0-1.29-.1c-.36,0-.56-.06-.56-.29s.23-.3.7-.3c1.78,0,3.86.1,4.75.1s2.87-.1,4.16-.1c.46,0,.69.07.69.3s-.2.29-.59.29a6.65,6.65,0,0,0-1,.1c-.89.17-1.16.73-1.22,1.88s-.07,2-.07,7v5.81c0,3,0,5.65.17,7.06.1.93.29,1.65,1.28,1.79a15.43,15.43,0,0,0,1.69.13c.36,0,.53.1.53.26s-.27.33-.66.33c-2.15,0-4.23-.1-5.15-.1-.76,0-2.84.1-4.13.1-.46,0-.69-.1-.69-.33s.13-.26.53-.26a5.69,5.69,0,0,0,1.18-.13c.66-.14.83-.86,1-1.82.17-1.38.17-4,.17-7v-2.9a.19.19,0,0,0-.2-.2H13.15c-.1,0-.2,0-.2.2v2.9c0,3,0,5.65.17,7.06.1.93.29,1.65,1.28,1.79a15.43,15.43,0,0,0,1.69.13c.36,0,.53.1.53.26s-.27.33-.66.33c-2.15,0-4.23-.1-5.15-.1-.76,0-2.84.1-4.16.1-.43,0-.66-.1-.66-.33s.13-.26.53-.26A5.69,5.69,0,0,0,7.7,69.2c.66-.14.83-.86,1-1.82.17-1.38.17-4,.17-7V54.54c0-5,0-5.94-.07-7s-.33-1.65-1.42-1.88a7.25,7.25,0,0,0-1.29-.1c-.36,0-.56-.06-.56-.29s.23-.3.7-.3c1.78,0,3.86.1,4.75.1s2.87-.1,4.16-.1c.46,0,.69.07.69.3s-.2.29-.59.29a6.65,6.65,0,0,0-1,.1c-.89.17-1.16.73-1.22,1.88s-.07,2-.07,7v.7a.2.2,0,0,0,.2.23Z"/><path d="M40.9,54.54c0-5,0-5.94-.06-7s-.4-1.68-1.13-1.84a4.6,4.6,0,0,0-1.18-.14c-.33,0-.53-.06-.53-.33s.26-.26.79-.26c1.25,0,3.33.1,4.29.1s2.77-.1,4-.1c.43,0,.69.07.69.26s-.2.33-.53.33a6.26,6.26,0,0,0-1,.1c-.89.17-1.15.73-1.22,1.88s-.06,2-.06,7v5.81c0,3.2,0,5.81.13,7.23.1.89.33,1.48,1.32,1.62a15.24,15.24,0,0,0,1.68.13c.36,0,.53.1.53.26s-.27.33-.63.33c-2.18,0-4.26-.1-5.15-.1s-2.84.1-4.16.1c-.43,0-.66-.1-.66-.33s.14-.26.53-.26a5.8,5.8,0,0,0,1.19-.13c.66-.14.86-.7,1-1.65.16-1.39.16-4,.16-7.2Z"/><path d="M54,69.53c-.53-.24-.62-.4-.62-1.13,0-1.81.13-3.79.16-4.32s.13-.86.4-.86.33.3.33.56a7.21,7.21,0,0,0,.29,1.69,4.56,4.56,0,0,0,4.72,3.33c3,0,4.43-2,4.43-3.76s-.5-3.14-3.24-5.28L59,58.57c-3.63-2.84-4.88-5.15-4.88-7.82,0-3.63,3-6.24,7.62-6.24a16,16,0,0,1,4.39.56c.3.07.46.16.46.4,0,.42-.13,1.38-.13,4,0,.72-.1,1-.36,1s-.33-.2-.33-.6a4.06,4.06,0,0,0-.86-2.18A4.19,4.19,0,0,0,61.26,46c-2.44,0-3.92,1.42-3.92,3.4,0,1.51.76,2.67,3.49,4.75l.93.69c4,3,5.41,5.28,5.41,8.42A6.64,6.64,0,0,1,64.07,69a9.51,9.51,0,0,1-5.25,1.35A11.57,11.57,0,0,1,54,69.53Z"/><path d="M79.41,46.82,74.5,47c-1.92.07-2.71.23-3.21,1a4,4,0,0,0-.56,1.15c-.06.27-.16.4-.36.4s-.3-.17-.3-.53c0-.53.63-3.53.7-3.79.1-.43.19-.63.39-.63a7.61,7.61,0,0,0,1.42.39c1,.1,2.21.17,3.3.17H89a15.14,15.14,0,0,0,2.28-.17c.49-.09.76-.16.89-.16s.26.2.26.69c0,.7-.09,3-.09,3.83,0,.33-.1.53-.3.53s-.33-.17-.37-.66l0-.36c-.06-.86-1-1.79-3.89-1.85l-4.16-.1V60.35c0,3,0,5.65.16,7.06.1.93.3,1.65,1.29,1.79a15.24,15.24,0,0,0,1.68.13c.37,0,.53.1.53.26s-.26.33-.62.33c-2.18,0-4.26-.1-5.19-.1-.76,0-2.83.1-4.16.1-.42,0-.66-.1-.66-.33s.14-.26.53-.26a5.8,5.8,0,0,0,1.19-.13c.66-.14.86-.86,1-1.82.16-1.38.16-4,.16-7Z"/><path d="M94.43,57.45c0-5.65,3.73-12.94,13.63-12.94,8.22,0,13.33,4.78,13.33,12.34s-5.28,13.53-13.66,13.53C98.26,70.38,94.43,63.29,94.43,57.45Zm22.34.62c0-7.39-4.26-12-9.67-12-3.79,0-8.12,2.12-8.12,10.33,0,6.87,3.8,12.31,10.13,12.31C111.42,68.73,116.77,67.61,116.77,58.07Z"/><path d="M128.29,54.54c0-5,0-5.94-.07-7s-.33-1.65-1.42-1.88a7.25,7.25,0,0,0-1.29-.1c-.36,0-.56-.06-.56-.29s.23-.3.73-.3c1.75,0,3.83.1,4.52.1,1.12,0,3.63-.1,4.65-.1a10.6,10.6,0,0,1,6.08,1.42,5.73,5.73,0,0,1,2.24,4.52c0,2.44-1,4.69-4.36,7.39C141.75,62,144,64.94,146,67a6.55,6.55,0,0,0,3.69,2.25,5.92,5.92,0,0,0,.93.1c.26,0,.39.1.39.26s-.23.33-.62.33h-3.14a6.63,6.63,0,0,1-3.53-.63c-1.42-.75-2.67-2.31-4.52-4.85-1.32-1.81-2.84-4.06-3.27-4.55a.67.67,0,0,0-.59-.23l-2.88-.07c-.16,0-.26.07-.26.27v.46c0,3.07,0,5.68.17,7.06.09,1,.29,1.68,1.28,1.82.5.06,1.22.13,1.62.13s.4.1.4.26-.23.33-.66.33c-1.92,0-4.36-.1-4.86-.1s-2.7.1-4,.1c-.43,0-.66-.1-.66-.33s.13-.26.53-.26a5.69,5.69,0,0,0,1.18-.13c.66-.14.83-.86,1-1.82.17-1.38.17-4,.17-7Zm3.89,2.61c0,.36.07.49.3.59a8.71,8.71,0,0,0,2.51.33,3.3,3.3,0,0,0,2.34-.56c1-.72,1.95-2.24,1.95-4.95,0-4.68-3.11-6-5.05-6a7.2,7.2,0,0,0-1.75.13c-.23.07-.3.2-.3.47Z"/><path d="M156.24,61.37a7,7,0,0,0-.76-3.46c-.23-.53-4.66-7.79-5.81-9.51A8.2,8.2,0,0,0,147.39,46a3.38,3.38,0,0,0-1.38-.43c-.27,0-.5-.06-.5-.29s.23-.3.63-.3c.59,0,3.07.1,4.16.1.69,0,2-.1,3.53-.1.33,0,.49.1.49.3s-.23.23-.72.36a.6.6,0,0,0-.47.59,3.13,3.13,0,0,0,.4,1.13c.46,1,5.08,8.94,5.61,9.87.33-.8,4.49-8.06,5-9.08a4.32,4.32,0,0,0,.46-1.72.78.78,0,0,0-.69-.82c-.3-.07-.59-.13-.59-.33s.16-.3.56-.3c1.09,0,2.14.1,3.1.1.73,0,2.9-.1,3.53-.1.37,0,.6.07.6.26s-.27.33-.63.33A3.62,3.62,0,0,0,169,46a4.92,4.92,0,0,0-1.79,1.62,105.92,105.92,0,0,0-6.3,10.49,8,8,0,0,0-.49,3.3v2.71c0,.53,0,1.92.09,3.3.07,1,.37,1.68,1.36,1.82a15.28,15.28,0,0,0,1.65.13c.36,0,.53.1.53.26s-.27.33-.7.33c-2.08,0-4.16-.1-5.05-.1s-2.9.1-4.12.1c-.46,0-.73-.06-.73-.33s.17-.26.53-.26a5.82,5.82,0,0,0,1.16-.13c.66-.14.95-.86,1-1.82.1-1.38.1-2.77.1-3.3Z"/><path d="M185.87,61.51c-.16,0-.23.06-.3.26l-1.78,4.52a6.41,6.41,0,0,0-.49,2c0,.6.29,1,1.32,1h.49c.4,0,.5.06.5.26s-.2.33-.56.33c-1.06,0-2.48-.1-3.5-.1-.37,0-2.18.1-3.9.1-.43,0-.62-.06-.62-.33s.13-.26.39-.26.76,0,1-.07c1.52-.2,2.15-1.32,2.81-3l8.28-20.46c.4-1,.6-1.32.93-1.32s.49.3.82,1.05c.8,1.82,6.08,15,8.19,20,1.25,3,2.21,3.43,2.9,3.6a8.08,8.08,0,0,0,1.39.13c.26,0,.43,0,.43.26s-.3.33-1.52.33-3.6,0-6.24-.06c-.59,0-1,0-1-.27s.13-.26.46-.3a.52.52,0,0,0,.3-.75l-2.64-6.8a.31.31,0,0,0-.33-.23Zm6.73-1.65c.17,0,.2-.1.17-.2l-3-8.12c0-.13-.07-.3-.17-.3s-.16.17-.19.3l-3,8.08c0,.14,0,.24.13.24Z"/><path d="M209.5,65.43c.06,2.58.49,3.44,1.15,3.67a5.48,5.48,0,0,0,1.72.23c.36,0,.56.06.56.26s-.3.33-.76.33c-2.14,0-3.46-.1-4.09-.1-.3,0-1.85.1-3.57.1-.42,0-.72,0-.72-.33s.2-.26.53-.26a5.9,5.9,0,0,0,1.48-.17c.86-.26,1-1.22,1-4.09l.29-19.44c0-.66.1-1.12.43-1.12s.66.43,1.22,1c.4.43,5.42,5.71,10.23,10.5,2.25,2.24,6.7,7,7.26,7.52h.17l-.33-14.82c0-2-.33-2.64-1.12-3a5.36,5.36,0,0,0-1.75-.2c-.4,0-.53-.09-.53-.29s.36-.3.86-.3c1.71,0,3.3.1,4,.1.37,0,1.62-.1,3.24-.1.43,0,.76,0,.76.3s-.2.29-.6.29a3.57,3.57,0,0,0-1,.1c-.92.27-1.19,1-1.22,2.81l-.36,20.82c0,.73-.13,1-.43,1s-.76-.36-1.12-.73c-2.08-2-6.31-6.3-9.74-9.7-3.6-3.57-7.26-7.59-7.86-8.22h-.09Z"/><path d="M238.9,54.54c0-5,0-5.94-.07-7s-.33-1.65-1.41-1.88a7.42,7.42,0,0,0-1.29-.1c-.36,0-.56-.06-.56-.29s.23-.3.72-.3c1.75,0,3.83.1,4.76.1s3.1-.1,5.08-.1c4.12,0,9.64,0,13.23,3.76a11.82,11.82,0,0,1,3.21,8.39,13.12,13.12,0,0,1-3.6,9.21c-1.52,1.55-5,3.89-11.06,3.89-1.19,0-2.54-.1-3.79-.2s-2.41-.2-3.24-.2c-.36,0-1.09,0-1.88,0s-1.62.06-2.28.06c-.43,0-.66-.1-.66-.33s.13-.26.53-.26a5.8,5.8,0,0,0,1.19-.13c.66-.14.82-.86,1-1.82.16-1.38.16-4,.16-7ZM243,58.17c0,3.5,0,6,.06,6.67a7.23,7.23,0,0,0,.37,2.51c.42.62,1.71,1.32,4.32,1.32,3.37,0,5.61-.66,7.59-2.38s2.77-4.82,2.77-8.22A11.23,11.23,0,0,0,255,49.82a13.08,13.08,0,0,0-9.37-3.3,8.85,8.85,0,0,0-2.14.23.6.6,0,0,0-.4.66c0,1.13,0,4,0,6.6Z"/><path d="M279.69,54.54c0-5,0-5.94-.07-7s-.33-1.65-1.42-1.88a7.21,7.21,0,0,0-1.28-.1c-.37,0-.57-.06-.57-.29s.24-.3.73-.3l2.67,0c.86,0,1.62.07,2.08.07,1.06,0,7.63,0,8.25,0s1.16-.14,1.42-.2a3.71,3.71,0,0,1,.53-.13c.17,0,.2.13.2.29a19.11,19.11,0,0,0-.26,2.15c0,.33-.1,1.78-.17,2.18,0,.16-.1.36-.33.36s-.3-.16-.3-.46A3.66,3.66,0,0,0,291,48c-.24-.59-.57-1-2.22-1.19-.56-.06-4-.13-4.68-.13-.17,0-.23.1-.23.33V55.4c0,.23,0,.36.23.36.72,0,4.52,0,5.28-.06s1.29-.17,1.58-.5.37-.43.53-.43.23.07.23.27-.13.72-.26,2.41c0,.66-.13,2-.13,2.21s0,.63-.3.63a.27.27,0,0,1-.3-.3,8.11,8.11,0,0,0-.13-1.19c-.17-.66-.63-1.16-1.85-1.29-.63-.06-3.89-.1-4.69-.1-.16,0-.19.14-.19.33v2.61c0,1.12,0,4.16,0,5.12.06,2.27.59,2.77,4,2.77a8.28,8.28,0,0,0,3.1-.4c.86-.39,1.25-1.09,1.48-2.44.07-.36.14-.49.37-.49s.26.26.26.59a25.11,25.11,0,0,1-.43,3.66c-.23.86-.53.86-1.78.86-2.47,0-4.29-.06-5.71-.1s-2.44-.1-3.43-.1c-.37,0-1.09,0-1.88,0s-1.62.06-2.28.06c-.43,0-.66-.1-.66-.33s.13-.26.53-.26a5.89,5.89,0,0,0,1.19-.13c.66-.14.82-.86.95-1.82.17-1.38.17-4,.17-7Z"/><path d="M300.54,54.54c0-5,0-5.94-.06-7s-.33-1.65-1.42-1.88a7.42,7.42,0,0,0-1.29-.1c-.36,0-.56-.06-.56-.29s.23-.3.73-.3c1.75,0,3.82.1,4.75.1s3.1-.1,5.08-.1c4.13,0,9.64,0,13.24,3.76a11.81,11.81,0,0,1,3.2,8.39,13.12,13.12,0,0,1-3.6,9.21c-1.52,1.55-4.95,3.89-11.06,3.89-1.18,0-2.54-.1-3.79-.2s-2.41-.2-3.24-.2c-.36,0-1.09,0-1.88,0s-1.61.06-2.27.06c-.43,0-.66-.1-.66-.33s.13-.26.52-.26a5.8,5.8,0,0,0,1.19-.13c.66-.14.83-.86,1-1.82.16-1.38.16-4,.16-7Zm4.13,3.63c0,3.5,0,6,.07,6.67a7,7,0,0,0,.36,2.51c.43.62,1.71,1.32,4.32,1.32,3.37,0,5.61-.66,7.59-2.38s2.78-4.82,2.78-8.22a11.23,11.23,0,0,0-3.17-8.25,13.11,13.11,0,0,0-9.38-3.3,8.85,8.85,0,0,0-2.14.23.6.6,0,0,0-.4.66c0,1.13,0,4,0,6.6Z"/><path d="M330,54.54c0-5,0-5.94-.06-7s-.33-1.65-1.42-1.88a7.42,7.42,0,0,0-1.29-.1c-.36,0-.56-.06-.56-.29s.23-.3.72-.3c1.75,0,3.83.1,4.82.1.8,0,2.87-.1,4.06-.1.5,0,.73.07.73.3s-.2.29-.53.29a5.6,5.6,0,0,0-1,.1c-.89.17-1.15.73-1.22,1.88s-.06,2-.06,7v4.62c0,4.79.95,6.8,2.57,8.12a6.12,6.12,0,0,0,4.13,1.35,6.45,6.45,0,0,0,4.55-1.78c1.82-1.81,1.92-4.78,1.92-8.18V54.54c0-5,0-5.94-.07-7s-.33-1.65-1.42-1.88a6.87,6.87,0,0,0-1.19-.1c-.36,0-.56-.06-.56-.29s.23-.3.69-.3c1.69,0,3.77.1,3.8.1.4,0,2.47-.1,3.76-.1.46,0,.7.07.7.3s-.2.29-.6.29a5.6,5.6,0,0,0-1,.1c-.89.17-1.15.73-1.22,1.88s-.06,2-.06,7v3.53c0,3.67-.37,7.56-3.14,9.94a9.85,9.85,0,0,1-6.86,2.37c-1.75,0-4.92-.09-7.33-2.27-1.68-1.52-2.94-4-2.94-8.75Z"/><path d="M360,66.79A13.08,13.08,0,0,1,359.81,48c2.38-2.18,5.51-3.5,10.43-3.5a32.4,32.4,0,0,1,4.79.33c1.25.16,2.31.46,3.3.56.36,0,.49.2.49.4s-.1.66-.16,1.81,0,2.91-.1,3.57c0,.49-.1.75-.4.75s-.33-.26-.33-.72a4.69,4.69,0,0,0-1.29-3c-1.08-1.15-3.66-2-6.7-2a8.59,8.59,0,0,0-6.2,2c-2.41,2.21-3,5.35-3,8.55,0,7.86,6,11.75,10.4,11.75,2.94,0,4.72-.33,6-1.85a5.41,5.41,0,0,0,1.12-2.18c.1-.52.17-.66.43-.66s.3.23.3.5a31.57,31.57,0,0,1-.73,4.39,1.14,1.14,0,0,1-.86,1,19.06,19.06,0,0,1-5.94.76C366.84,70.38,363,69.39,360,66.79Z"/><path d="M388.26,61.51c-.17,0-.23.06-.3.26l-1.78,4.52a6.5,6.5,0,0,0-.5,2c0,.6.3,1,1.32,1h.5c.39,0,.49.06.49.26s-.2.33-.56.33c-1.05,0-2.47-.1-3.5-.1-.36,0-2.18.1-3.89.1-.43,0-.63-.06-.63-.33s.13-.26.4-.26.76,0,1-.07c1.52-.2,2.15-1.32,2.81-3l8.28-20.46c.4-1,.59-1.32.92-1.32s.5.3.83,1.05c.79,1.82,6.07,15,8.19,20,1.25,3,2.21,3.43,2.9,3.6a8,8,0,0,0,1.39.13c.26,0,.42,0,.42.26s-.29.33-1.51.33-3.6,0-6.24-.06c-.6,0-1,0-1-.27s.13-.26.46-.3a.53.53,0,0,0,.3-.75L396,61.74a.32.32,0,0,0-.33-.23ZM395,59.86c.16,0,.2-.1.16-.2l-3-8.12c0-.13-.06-.3-.16-.3s-.17.17-.2.3l-3,8.08c0,.14,0,.24.13.24Z"/><path d="M412.28,46.82l-4.92.13c-1.91.07-2.7.23-3.2,1a4,4,0,0,0-.56,1.15c-.06.27-.16.4-.36.4s-.3-.17-.3-.53c0-.53.63-3.53.69-3.79.1-.43.2-.63.4-.63a7.14,7.14,0,0,0,1.42.39c1,.1,2.21.17,3.3.17h13.07a15.14,15.14,0,0,0,2.28-.17c.49-.09.76-.16.89-.16s.26.2.26.69c0,.7-.1,3-.1,3.83,0,.33-.1.53-.29.53s-.33-.17-.37-.66l0-.36c-.07-.86-1-1.79-3.89-1.85l-4.16-.1V60.35c0,3,0,5.65.16,7.06.1.93.3,1.65,1.29,1.79a15.24,15.24,0,0,0,1.68.13c.37,0,.53.1.53.26s-.26.33-.63.33c-2.17,0-4.25-.1-5.18-.1-.76,0-2.84.1-4.16.1-.43,0-.66-.1-.66-.33s.14-.26.53-.26a5.8,5.8,0,0,0,1.19-.13c.66-.14.86-.86,1-1.82.16-1.38.16-4,.16-7Z"/><path d="M431.32,54.54c0-5,0-5.94-.06-7s-.4-1.68-1.13-1.84a4.6,4.6,0,0,0-1.18-.14c-.33,0-.53-.06-.53-.33s.26-.26.79-.26c1.25,0,3.33.1,4.29.1s2.77-.1,4-.1c.43,0,.69.07.69.26s-.2.33-.53.33a6.26,6.26,0,0,0-1,.1c-.89.17-1.15.73-1.22,1.88s-.07,2-.07,7v5.81c0,3.2,0,5.81.14,7.23.09.89.33,1.48,1.32,1.62a15.05,15.05,0,0,0,1.68.13c.36,0,.53.1.53.26s-.27.33-.63.33c-2.18,0-4.26-.1-5.15-.1s-2.84.1-4.16.1c-.43,0-.66-.1-.66-.33s.14-.26.53-.26a5.8,5.8,0,0,0,1.19-.13c.66-.14.86-.7,1-1.65.16-1.39.16-4,.16-7.2Z"/><path d="M442.31,57.45c0-5.65,3.73-12.94,13.63-12.94,8.22,0,13.34,4.78,13.34,12.34S464,70.38,455.61,70.38C446.14,70.38,442.31,63.29,442.31,57.45Zm22.34.62c0-7.39-4.25-12-9.67-12-3.79,0-8.11,2.12-8.11,10.33,0,6.87,3.79,12.31,10.13,12.31C459.31,68.73,464.65,67.61,464.65,58.07Z"/><path d="M478,65.43c.06,2.58.49,3.44,1.15,3.67a5.48,5.48,0,0,0,1.72.23c.36,0,.56.06.56.26s-.3.33-.76.33c-2.15,0-3.47-.1-4.09-.1-.3,0-1.85.1-3.57.1-.43,0-.72,0-.72-.33s.19-.26.52-.26a6,6,0,0,0,1.49-.17c.86-.26,1-1.22,1-4.09l.3-19.44c0-.66.1-1.12.43-1.12s.66.43,1.22,1c.4.43,5.41,5.71,10.23,10.5,2.25,2.24,6.7,7,7.26,7.52H495l-.33-14.82c0-2-.33-2.64-1.12-3a5.36,5.36,0,0,0-1.75-.2c-.4,0-.53-.09-.53-.29s.36-.3.86-.3c1.71,0,3.3.1,4,.1.36,0,1.62-.1,3.23-.1.43,0,.76,0,.76.3s-.19.29-.59.29a3.57,3.57,0,0,0-1,.1c-.92.27-1.19,1-1.22,2.81l-.36,20.82c0,.73-.14,1-.43,1s-.76-.36-1.13-.73c-2.07-2-6.3-6.3-9.73-9.7-3.6-3.57-7.26-7.59-7.86-8.22h-.1Z"/></svg>