<svg id="Layer_1" data-name="Layer 1" xmlns="http://www.w3.org/2000/svg" viewBox="0 0 400 100"><title>Artboard 1</title><path d="M22.92,17.71l9.36,35.07L43.8,17.71H55L66.55,52.78l9.36-35.07H90.67L74.47,72H60.07L49.42,40.54,38.76,72H24.36L8.16,17.71Z"/><path d="M93.62,35.06h13v6A14.82,14.82,0,0,1,111.77,36a13.67,13.67,0,0,1,7-1.77h1.12a7.61,7.61,0,0,1,1.4.15V46.87a12.4,12.4,0,0,0-5.61-1.29c-3,0-5.29.9-6.81,2.7s-2.26,4.42-2.26,7.88V72h-13Z"/><path d="M126.31,20.88a6.94,6.94,0,0,1,.58-2.84,7.48,7.48,0,0,1,3.92-3.93,7.39,7.39,0,0,1,5.69,0A7.48,7.48,0,0,1,140.42,18a7.24,7.24,0,0,1,0,5.68,7.48,7.48,0,0,1-3.92,3.93,7.39,7.39,0,0,1-5.69,0,7.48,7.48,0,0,1-3.92-3.93A6.94,6.94,0,0,1,126.31,20.88Zm13.9,14.18V72h-13V35.06Z"/><path d="M163.68,45.94V72h-13V45.94h-4.32V35.06h4.32V24h13V35.06h7.41V45.94Z"/><path d="M191.32,17.71V60.05h16.93V72h-31V17.71Z"/><path d="M242.8,35.06h13.11V72H242.8V67.9a13.67,13.67,0,0,1-11.3,5.25,18.44,18.44,0,0,1-7.42-1.47,18.11,18.11,0,0,1-5.9-4.14,19.07,19.07,0,0,1-3.92-6.27,21.32,21.32,0,0,1-1.41-7.85,20.85,20.85,0,0,1,1.37-7.52A19.19,19.19,0,0,1,218,39.67a17.74,17.74,0,0,1,13.32-5.76,15,15,0,0,1,11.44,4.83ZM226.39,53.42a8.44,8.44,0,0,0,.65,3.35,8.58,8.58,0,0,0,1.76,2.7,7.82,7.82,0,0,0,2.66,1.8,8.66,8.66,0,0,0,3.35.65,8.46,8.46,0,0,0,3.28-.65,7.82,7.82,0,0,0,2.66-1.8,8.92,8.92,0,0,0,1.8-2.66,7.72,7.72,0,0,0,.69-3.24,8,8,0,0,0-.69-3.28,9,9,0,0,0-1.8-2.7,7.82,7.82,0,0,0-2.66-1.8,8.46,8.46,0,0,0-3.28-.65,8.66,8.66,0,0,0-3.35.65,7.82,7.82,0,0,0-2.66,1.8A9,9,0,0,0,227,50.22,7.76,7.76,0,0,0,226.39,53.42Z"/><path d="M264.76,35.06h13v6A14.82,14.82,0,0,1,282.91,36a13.7,13.7,0,0,1,7-1.77h1.12a7.52,7.52,0,0,1,1.4.15V46.87a12.4,12.4,0,0,0-5.61-1.29c-3,0-5.29.9-6.81,2.7s-2.26,4.42-2.26,7.88V72h-13Z"/><path d="M340,35.06V69.48a38.35,38.35,0,0,1-.36,5.54,22.93,22.93,0,0,1-1,4.32,13.35,13.35,0,0,1-2.7,4.43,18,18,0,0,1-4.42,3.57,23.64,23.64,0,0,1-5.87,2.37,29.46,29.46,0,0,1-15-.21,21.61,21.61,0,0,1-6.3-3A17.25,17.25,0,0,1,299.9,82a14.9,14.9,0,0,1-2.31-5.58h14.69c.91,2.45,3,3.68,6.19,3.68a8.31,8.31,0,0,0,6.31-2.31A8.93,8.93,0,0,0,327,71.42V67.9a21.72,21.72,0,0,1-2.77,2.26,15.63,15.63,0,0,1-2.7,1.48,13.09,13.09,0,0,1-2.88.83,20,20,0,0,1-3.31.25A18.87,18.87,0,0,1,308,71.35a16.73,16.73,0,0,1-9.47-9.68,20.73,20.73,0,0,1-1.33-7.6,21.19,21.19,0,0,1,1.43-7.88,20.18,20.18,0,0,1,3.93-6.34A17.83,17.83,0,0,1,316,34.06,14.33,14.33,0,0,1,327,39V35.06ZM310.77,53.35a8.65,8.65,0,0,0,2.41,6,7.87,7.87,0,0,0,2.67,1.8,8.59,8.59,0,0,0,3.35.65,8.41,8.41,0,0,0,3.27-.65,7.82,7.82,0,0,0,2.66-1.8,9,9,0,0,0,1.8-2.7,8.21,8.21,0,0,0,0-6.59,8.77,8.77,0,0,0-1.83-2.66A8.45,8.45,0,0,0,319.2,45a7.81,7.81,0,0,0-3.24.68,9.5,9.5,0,0,0-2.67,1.8,8.4,8.4,0,0,0-1.83,2.63A7.72,7.72,0,0,0,310.77,53.35Z"/><path d="M361.46,55.73q0,8.42,7.92,8.42a7.08,7.08,0,0,0,6.41-3.45h12.6q-3.83,12.66-19.08,12.67A25,25,0,0,1,360.74,72a18.94,18.94,0,0,1-6.66-4,17.84,17.84,0,0,1-4.29-6.19,20.8,20.8,0,0,1-1.51-8.07,22.78,22.78,0,0,1,1.44-8.31,17.32,17.32,0,0,1,4.11-6.3,18.15,18.15,0,0,1,6.44-4,24.27,24.27,0,0,1,8.53-1.4,23.81,23.81,0,0,1,8.43,1.4,17.1,17.1,0,0,1,6.33,4.07,17.62,17.62,0,0,1,4,6.51,25.88,25.88,0,0,1,1.37,8.68v1.37Zm15.26-7.56a7.81,7.81,0,0,0-2.66-4.39,8.27,8.27,0,0,0-9.83-.08,7.18,7.18,0,0,0-2.41,4.47Z"/></svg>