<svg id="Layer_1" data-name="Layer 1" xmlns="http://www.w3.org/2000/svg" viewBox="0 0 385 75"><defs><style>.cls-1{fill:#fff;}.cls-2{fill:none;stroke:#fff;stroke-miterlimit:10;}</style></defs><title>Artboard 1</title><path class="cls-1" d="M113,20.29a9.54,9.54,0,0,1-3.14-7.48,9.53,9.53,0,0,1,3-6.94c1.83-1.68,4.24-2.69,8-2.69a25.42,25.42,0,0,1,3.68.25c1,.13,1.77.36,2.54.43.27,0,.38.15.38.31s-.08.5-.13,1.39,0,2.23-.08,2.74-.07.58-.3.58-.25-.2-.25-.56a3.67,3.67,0,0,0-1-2.33c-.84-.88-2.82-1.57-5.15-1.57A6.64,6.64,0,0,0,115.8,6c-1.85,1.7-2.33,4.11-2.33,6.57,0,6,4.59,9,8,9,2.25,0,3.62-.26,4.64-1.42a4.27,4.27,0,0,0,.86-1.68c.08-.4.13-.51.33-.51s.23.18.23.39a24.73,24.73,0,0,1-.56,3.37.89.89,0,0,1-.66.73,14.51,14.51,0,0,1-4.56.59C118.26,23.06,115.35,22.3,113,20.29Z"/><path class="cls-1" d="M132.94,10.89c0-3.86,0-4.57-.05-5.38s-.26-1.27-1.09-1.44a4.53,4.53,0,0,0-1-.08c-.28,0-.43-.05-.43-.23s.18-.23.56-.23l2.05,0c.66,0,1.24,0,1.6,0,.81,0,5.85,0,6.34,0A10.61,10.61,0,0,0,142,3.43a2.6,2.6,0,0,1,.4-.1c.13,0,.15.1.15.23s-.12.48-.2,1.65c0,.25-.08,1.37-.13,1.67,0,.13-.07.28-.25.28s-.23-.13-.23-.36a2.66,2.66,0,0,0-.15-.91c-.18-.46-.43-.76-1.7-.91-.43-.05-3.09-.1-3.6-.1-.13,0-.18.07-.18.25v6.42c0,.17,0,.27.18.27.56,0,3.47,0,4.06-.05s1-.12,1.21-.38.28-.33.41-.33.18,0,.18.21-.1.55-.2,1.85c0,.5-.11,1.52-.11,1.7s0,.48-.22.48a.2.2,0,0,1-.23-.23,9,9,0,0,0-.1-.91c-.13-.51-.49-.89-1.42-1-.49-.05-3-.08-3.6-.08-.13,0-.16.1-.16.26v2c0,.86,0,3.19,0,3.93.05,1.75.46,2.13,3.05,2.13a6.3,6.3,0,0,0,2.38-.31c.66-.3,1-.83,1.14-1.87.05-.28.1-.38.28-.38s.2.2.2.45a19.43,19.43,0,0,1-.33,2.82c-.18.66-.4.66-1.37.66-1.9,0-3.29-.05-4.38-.08s-1.88-.08-2.64-.08c-.28,0-.84,0-1.44,0s-1.25.05-1.75.05c-.33,0-.51-.08-.51-.25s.1-.21.4-.21a4.28,4.28,0,0,0,.92-.1c.5-.1.63-.66.73-1.39.13-1.07.13-3.07.13-5.4Z"/><path class="cls-1" d="M150.38,19.25c.05,2,.38,2.64.89,2.82a4.06,4.06,0,0,0,1.32.17c.28,0,.43.06.43.21s-.23.25-.59.25c-1.64,0-2.66-.08-3.14-.08-.23,0-1.42.08-2.74.08-.33,0-.56,0-.56-.25s.16-.21.41-.21a4.52,4.52,0,0,0,1.14-.12c.66-.21.76-.94.79-3.15L148.55,4c0-.51.08-.86.33-.86s.51.33.94.78S154,8.35,157.68,12c1.73,1.72,5.15,5.37,5.58,5.78h.13l-.26-11.39c0-1.54-.25-2-.86-2.28A4.18,4.18,0,0,0,160.93,4c-.31,0-.41-.08-.41-.23s.28-.23.66-.23c1.32,0,2.54.08,3.07.08.28,0,1.24-.08,2.48-.08.33,0,.59,0,.59.23s-.16.23-.46.23a2.62,2.62,0,0,0-.76.08c-.71.2-.91.73-.94,2.15l-.28,16c0,.56-.1.78-.33.78s-.58-.27-.86-.55c-1.6-1.52-4.84-4.85-7.48-7.46s-5.58-5.83-6-6.31h-.08Z"/><path class="cls-1" d="M176.34,5l-3.78.1c-1.47.06-2.08.18-2.46.74a3,3,0,0,0-.43.89c0,.2-.13.3-.28.3s-.23-.13-.23-.4.49-2.72.54-2.92.15-.48.3-.48a6,6,0,0,0,1.09.3,25.36,25.36,0,0,0,2.54.13h10a12.16,12.16,0,0,0,1.75-.13c.38-.07.58-.12.68-.12s.2.15.2.53-.07,2.28-.07,2.94c0,.25-.08.4-.23.4s-.25-.12-.28-.5l0-.28c-.05-.66-.73-1.37-3-1.42L179.51,5v10.4c0,2.33,0,4.33.13,5.42.07.71.22,1.27,1,1.37a11,11,0,0,0,1.3.1c.28,0,.4.08.4.21s-.2.25-.48.25c-1.67,0-3.27-.08-4-.08s-2.18.08-3.19.08c-.33,0-.51-.08-.51-.25s.1-.21.4-.21a4.28,4.28,0,0,0,.92-.1c.5-.1.66-.66.73-1.39.13-1.07.13-3.07.13-5.4Z"/><path class="cls-1" d="M191,10.89c0-3.86,0-4.57-.06-5.38s-.25-1.27-1.09-1.44a4.43,4.43,0,0,0-1-.08c-.28,0-.44-.05-.44-.23s.18-.23.56-.23c.69,0,1.42,0,2.06,0s1.24,0,1.59,0c.81,0,5.86,0,6.34,0A10.2,10.2,0,0,0,200,3.43a3.06,3.06,0,0,1,.41-.1c.12,0,.15.1.15.23a14.85,14.85,0,0,0-.2,1.65c0,.25-.08,1.37-.13,1.67,0,.13-.08.28-.25.28s-.23-.13-.23-.36a2.93,2.93,0,0,0-.15-.91c-.18-.46-.43-.76-1.7-.91-.43-.05-3.1-.1-3.6-.1-.13,0-.18.07-.18.25v6.42c0,.17,0,.27.18.27.55,0,3.47,0,4-.05s1-.12,1.22-.38.28-.33.41-.33.17,0,.17.21-.1.55-.2,1.85c0,.5-.1,1.52-.1,1.7s0,.48-.23.48a.2.2,0,0,1-.23-.23,5.47,5.47,0,0,0-.1-.91c-.12-.51-.48-.89-1.42-1-.48-.05-3-.08-3.6-.08-.12,0-.15.1-.15.26v2c0,.86,0,3.19,0,3.93.05,1.75.46,2.13,3,2.13a6.35,6.35,0,0,0,2.39-.31c.66-.3,1-.83,1.14-1.87.05-.28.1-.38.28-.38s.2.2.2.45a19.43,19.43,0,0,1-.33,2.82c-.18.66-.41.66-1.37.66-1.9,0-3.3-.05-4.39-.08s-1.87-.08-2.63-.08c-.28,0-.84,0-1.45,0s-1.24.05-1.75.05c-.33,0-.5-.08-.5-.25s.1-.21.4-.21a4.11,4.11,0,0,0,.91-.1c.51-.1.64-.66.74-1.39.13-1.07.13-3.07.13-5.4Z"/><path class="cls-1" d="M207,10.89c0-3.86,0-4.57-.05-5.38s-.26-1.27-1.09-1.44a4.59,4.59,0,0,0-1-.08c-.28,0-.43-.05-.43-.23s.17-.23.55-.23c1.35,0,3,.08,3.48.08.86,0,2.79-.08,3.57-.08a8.1,8.1,0,0,1,4.67,1.09,4.42,4.42,0,0,1,1.72,3.48c0,1.87-.78,3.6-3.34,5.68,2.25,2.84,4,5.09,5.5,6.66a5.11,5.11,0,0,0,2.84,1.73,3.94,3.94,0,0,0,.71.07c.2,0,.3.08.3.21s-.18.25-.48.25h-2.41a5.2,5.2,0,0,1-2.71-.48c-1.09-.58-2.06-1.78-3.48-3.73-1-1.39-2.18-3.12-2.51-3.5a.52.52,0,0,0-.45-.17l-2.21-.06c-.13,0-.2.06-.2.21v.35c0,2.36,0,4.36.13,5.43.07.73.22,1.29,1,1.39a11.83,11.83,0,0,0,1.25.1c.2,0,.3.08.3.21s-.18.25-.51.25c-1.47,0-3.34-.08-3.72-.08s-2.08.08-3.1.08c-.33,0-.5-.08-.5-.25s.1-.21.4-.21a4.28,4.28,0,0,0,.92-.1c.5-.1.63-.66.73-1.39.13-1.07.13-3.07.13-5.4Zm3,2c0,.28.05.38.23.46a6.91,6.91,0,0,0,1.92.25,2.51,2.51,0,0,0,1.8-.43,4.49,4.49,0,0,0,1.5-3.81c0-3.6-2.38-4.64-3.88-4.64a5.23,5.23,0,0,0-1.34.11c-.18,0-.23.15-.23.35Z"/><path class="cls-1" d="M231,13.12c0-4.34,2.86-9.94,10.47-9.94,6.31,0,10.24,3.67,10.24,9.48s-4.05,10.4-10.5,10.4C233.91,23.06,231,17.6,231,13.12Zm17.16.48c0-5.68-3.27-9.2-7.43-9.2-2.91,0-6.23,1.62-6.23,7.93,0,5.27,2.91,9.46,7.78,9.46C244,21.79,248.13,20.93,248.13,13.6Z"/><path class="cls-1" d="M258.4,19.25c.05,2,.38,2.64.88,2.82a4.13,4.13,0,0,0,1.32.17c.28,0,.43.06.43.21s-.22.25-.58.25c-1.65,0-2.66-.08-3.14-.08-.23,0-1.42.08-2.74.08-.33,0-.56,0-.56-.25s.15-.21.41-.21a4.56,4.56,0,0,0,1.14-.12c.66-.21.76-.94.78-3.15L256.57,4c0-.51.08-.86.33-.86s.51.33.94.78S262,8.35,265.7,12c1.72,1.72,5.15,5.37,5.58,5.78h.12l-.25-11.39c0-1.54-.25-2-.86-2.28A4.21,4.21,0,0,0,268.94,4c-.3,0-.4-.08-.4-.23s.28-.23.66-.23c1.32,0,2.53.08,3.07.08.27,0,1.24-.08,2.48-.08.33,0,.58,0,.58.23s-.15.23-.45.23a2.59,2.59,0,0,0-.76.08c-.71.2-.92.73-.94,2.15l-.28,16c0,.56-.1.78-.33.78s-.58-.27-.86-.55c-1.6-1.52-4.84-4.85-7.48-7.46s-5.58-5.83-6-6.31h-.07Z"/><path class="cls-1" d="M18.32,42c.08,0,.15-.05.15-.18v-.53c0-3.86,0-4.57,0-5.38s-.25-1.27-1.09-1.44a4.48,4.48,0,0,0-1-.08c-.28,0-.43,0-.43-.23s.18-.23.53-.23c1.37,0,3,.08,3.66.08S22.3,34,23.29,34c.35,0,.53,0,.53.23s-.15.23-.45.23a3.67,3.67,0,0,0-.74.08c-.68.12-.89.55-.94,1.44s-.05,1.52-.05,5.38v4.46c0,2.33,0,4.33.13,5.42.07.71.23,1.27,1,1.37a10.7,10.7,0,0,0,1.29.1c.28,0,.41.08.41.21s-.21.25-.51.25c-1.65,0-3.25-.08-4-.08s-2.18.08-3.17.08c-.35,0-.53-.08-.53-.25s.1-.21.41-.21a4.18,4.18,0,0,0,.91-.1c.51-.1.63-.66.74-1.39.12-1.07.12-3.07.12-5.4V43.54a.15.15,0,0,0-.15-.16H8.63c-.07,0-.15,0-.15.16v2.23c0,2.33,0,4.33.13,5.42.08.71.23,1.27,1,1.37a10.7,10.7,0,0,0,1.29.1c.28,0,.41.08.41.21s-.21.25-.51.25c-1.65,0-3.25-.08-4-.08s-2.18.08-3.19.08c-.33,0-.51-.08-.51-.25s.1-.21.41-.21a4.18,4.18,0,0,0,.91-.1c.51-.1.64-.66.74-1.39.12-1.07.12-3.07.12-5.4V41.31c0-3.86,0-4.57,0-5.38S5,34.66,4.17,34.49a4.48,4.48,0,0,0-1-.08c-.28,0-.43,0-.43-.23s.18-.23.54-.23c1.36,0,3,.08,3.65.08S9.14,34,10.13,34c.36,0,.53,0,.53.23s-.15.23-.45.23a3.74,3.74,0,0,0-.74.08c-.68.12-.89.55-.94,1.44s0,1.52,0,5.38v.53c0,.13.08.18.15.18Z"/><path class="cls-1" d="M30,41.31c0-3.86,0-4.57-.05-5.38s-.3-1.29-.86-1.42a3.43,3.43,0,0,0-.91-.1c-.26,0-.41,0-.41-.25s.21-.21.61-.21c1,0,2.56.08,3.3.08S33.76,34,34.72,34c.33,0,.53,0,.53.21s-.15.25-.4.25a3.51,3.51,0,0,0-.76.08c-.69.12-.89.55-.94,1.44s0,1.52,0,5.38v4.46c0,2.46,0,4.46.1,5.55.08.69.25,1.14,1,1.24a11,11,0,0,0,1.3.1c.28,0,.4.08.4.21s-.2.25-.48.25c-1.67,0-3.27-.08-3.95-.08s-2.19.08-3.2.08c-.33,0-.51-.08-.51-.25s.1-.21.41-.21a4.18,4.18,0,0,0,.91-.1c.51-.1.66-.53.74-1.26.12-1.07.12-3.07.12-5.53Z"/><path class="cls-1" d="M40,52.82c-.41-.18-.48-.31-.48-.87,0-1.39.1-2.91.12-3.32s.1-.66.31-.66.25.23.25.43a5.17,5.17,0,0,0,.23,1.3,3.5,3.5,0,0,0,3.62,2.56,3.08,3.08,0,0,0,3.4-2.89c0-1.24-.38-2.41-2.48-4.06l-1.17-.91c-2.79-2.18-3.75-4-3.75-6,0-2.79,2.33-4.79,5.85-4.79A12.24,12.24,0,0,1,49.3,34c.22,0,.35.13.35.3,0,.33-.1,1.07-.1,3.05,0,.55-.08.76-.28.76S49,38,49,37.68A3.08,3.08,0,0,0,48.36,36a3.19,3.19,0,0,0-2.76-1.25c-1.88,0-3,1.09-3,2.62,0,1.16.58,2,2.69,3.65l.71.53C49,43.87,50.13,45.62,50.13,48a5.12,5.12,0,0,1-2.38,4.42,7.35,7.35,0,0,1-4,1A8.8,8.8,0,0,1,40,52.82Z"/><path class="cls-1" d="M59.54,35.37l-3.78.1c-1.47.05-2.08.18-2.46.74a3,3,0,0,0-.43.89c0,.2-.13.3-.28.3s-.23-.13-.23-.4.48-2.72.53-2.92.16-.48.31-.48a6,6,0,0,0,1.09.3,25.16,25.16,0,0,0,2.53.13h10a12,12,0,0,0,1.75-.13c.38-.07.59-.12.69-.12s.2.15.2.53-.07,2.28-.07,2.94c0,.25-.08.4-.23.4s-.26-.12-.28-.5l0-.28c0-.66-.73-1.37-3-1.42l-3.19-.08v10.4c0,2.33,0,4.33.12,5.42.08.71.23,1.27,1,1.37a11,11,0,0,0,1.3.1c.27,0,.4.08.4.21s-.2.25-.48.25c-1.67,0-3.27-.08-4-.08s-2.18.08-3.2.08c-.33,0-.5-.08-.5-.25s.1-.21.4-.21a4.28,4.28,0,0,0,.92-.1c.5-.1.65-.66.73-1.39.13-1.07.13-3.07.13-5.4Z"/><path class="cls-1" d="M71.07,43.54c0-4.34,2.87-9.94,10.47-9.94,6.32,0,10.25,3.67,10.25,9.48s-4.06,10.4-10.5,10.4C74,53.48,71.07,48,71.07,43.54ZM88.24,44c0-5.68-3.27-9.2-7.43-9.2-2.92,0-6.24,1.62-6.24,7.93,0,5.27,2.92,9.46,7.78,9.46C84.13,52.21,88.24,51.35,88.24,44Z"/><path class="cls-1" d="M97.08,41.31c0-3.86,0-4.57,0-5.38s-.25-1.27-1.09-1.44a4.48,4.48,0,0,0-1-.08c-.28,0-.43,0-.43-.23s.18-.23.56-.23c1.34,0,2.94.08,3.47.08.86,0,2.79-.08,3.58-.08A8.17,8.17,0,0,1,106.79,35a4.41,4.41,0,0,1,1.73,3.48c0,1.87-.79,3.6-3.35,5.68,2.26,2.84,4,5.09,5.5,6.66a5,5,0,0,0,2.84,1.73,4,4,0,0,0,.71.07c.2,0,.3.08.3.21s-.17.25-.48.25h-2.41a5.2,5.2,0,0,1-2.71-.48c-1.09-.58-2-1.78-3.47-3.73-1-1.39-2.18-3.12-2.51-3.5a.54.54,0,0,0-.46-.17l-2.2-.05c-.13,0-.21.05-.21.2v.35c0,2.36,0,4.36.13,5.43.08.73.23,1.29,1,1.39a11.86,11.86,0,0,0,1.24.1c.2,0,.31.08.31.21s-.18.25-.51.25c-1.47,0-3.35-.08-3.73-.08s-2.08.08-3.09.08c-.33,0-.51-.08-.51-.25s.1-.21.41-.21a4.18,4.18,0,0,0,.91-.1c.51-.1.63-.66.73-1.39.13-1.07.13-3.07.13-5.4Zm3,2c0,.28.05.38.23.46a6.94,6.94,0,0,0,1.93.25,2.55,2.55,0,0,0,1.8-.43c.76-.56,1.49-1.73,1.49-3.81,0-3.6-2.38-4.64-3.88-4.64a5.23,5.23,0,0,0-1.34.11c-.18,0-.23.15-.23.35Z"/><path class="cls-1" d="M118.55,46.55a5.41,5.41,0,0,0-.58-2.66c-.18-.4-3.57-6-4.46-7.3a6.28,6.28,0,0,0-1.75-1.85,2.54,2.54,0,0,0-1.07-.33c-.2,0-.38,0-.38-.23s.18-.23.48-.23c.46,0,2.36.08,3.2.08.53,0,1.57-.08,2.71-.08.26,0,.38.08.38.23s-.17.18-.56.28a.46.46,0,0,0-.35.46,2.51,2.51,0,0,0,.3.86c.36.76,3.91,6.87,4.31,7.58.26-.61,3.45-6.19,3.81-7a3.35,3.35,0,0,0,.35-1.32.62.62,0,0,0-.53-.64c-.23,0-.46-.1-.46-.25s.13-.23.43-.23c.84,0,1.65.08,2.39.08.56,0,2.23-.08,2.71-.08.28,0,.46,0,.46.21s-.21.25-.48.25a2.76,2.76,0,0,0-1.12.3A3.85,3.85,0,0,0,127,36,78.52,78.52,0,0,0,122.13,44a6.05,6.05,0,0,0-.38,2.53v2.08c0,.41,0,1.47.07,2.54.05.73.28,1.29,1,1.39a11,11,0,0,0,1.27.1c.28,0,.41.08.41.21s-.21.25-.54.25c-1.59,0-3.19-.08-3.87-.08s-2.24.08-3.17.08c-.36,0-.56,0-.56-.25s.12-.21.4-.21a4.13,4.13,0,0,0,.89-.1c.51-.1.74-.66.79-1.39.07-1.07.07-2.13.07-2.54Z"/><path class="cls-1" d="M141.32,46.66c-.13,0-.18.05-.23.2l-1.37,3.47a5,5,0,0,0-.38,1.55c0,.46.23.78,1,.78h.38c.31,0,.38.06.38.21s-.15.25-.43.25c-.81,0-1.9-.08-2.68-.08-.28,0-1.68.08-3,.08-.33,0-.48,0-.48-.25s.1-.21.31-.21a6.53,6.53,0,0,0,.78,0c1.17-.15,1.65-1,2.16-2.28l6.36-15.72c.31-.73.46-1,.71-1s.38.23.64.81c.6,1.39,4.66,11.54,6.28,15.39,1,2.28,1.7,2.64,2.23,2.76a5.33,5.33,0,0,0,1.07.1c.2,0,.33,0,.33.21s-.23.25-1.17.25-2.76,0-4.79,0c-.46,0-.76,0-.76-.2s.1-.21.36-.23a.41.41,0,0,0,.22-.58l-2-5.23a.24.24,0,0,0-.25-.17Zm5.17-1.27c.13,0,.15-.08.13-.15L144.33,39c0-.1-.05-.23-.12-.23s-.13.13-.15.23l-2.34,6.21c0,.1,0,.18.1.18Z"/><path class="cls-1" d="M159.47,49.67c.05,2,.38,2.64.89,2.82a4,4,0,0,0,1.31.17c.28,0,.43.06.43.21s-.22.25-.58.25c-1.65,0-2.66-.08-3.14-.08-.23,0-1.42.08-2.74.08-.33,0-.56,0-.56-.25s.15-.21.41-.21a4.56,4.56,0,0,0,1.14-.12c.66-.2.76-.94.78-3.15l.23-14.93c0-.51.08-.86.33-.86s.51.33.94.78,4.16,4.39,7.86,8.07c1.72,1.72,5.15,5.37,5.58,5.78h.12l-.25-11.39c0-1.54-.25-2-.86-2.28a4.18,4.18,0,0,0-1.34-.15c-.31,0-.41-.08-.41-.23s.28-.23.66-.23c1.32,0,2.53.08,3.07.08.28,0,1.24-.08,2.48-.08.33,0,.58,0,.58.23s-.15.23-.45.23a2.59,2.59,0,0,0-.76.08c-.71.2-.92.73-.94,2.15l-.28,16c0,.56-.1.79-.33.79s-.58-.28-.86-.56c-1.6-1.52-4.84-4.85-7.48-7.46s-5.58-5.83-6-6.31h-.08Z"/><path class="cls-1" d="M182.06,41.31c0-3.86,0-4.57-.06-5.38s-.25-1.27-1.09-1.44a4.43,4.43,0,0,0-1-.08c-.28,0-.44,0-.44-.23s.18-.23.56-.23c1.35,0,2.94.08,3.65.08s2.39-.08,3.91-.08c3.17,0,7.4,0,10.16,2.89a9.07,9.07,0,0,1,2.46,6.44,10.08,10.08,0,0,1-2.76,7.08c-1.17,1.19-3.8,3-8.49,3-.92,0-2-.08-2.92-.15s-1.85-.16-2.48-.16c-.28,0-.84,0-1.45,0s-1.24,0-1.75,0c-.33,0-.51-.08-.51-.25s.11-.21.41-.21a4.11,4.11,0,0,0,.91-.1c.51-.1.64-.66.74-1.39.13-1.07.13-3.07.13-5.4Zm3.16,2.79c0,2.68,0,4.64.06,5.12a5.48,5.48,0,0,0,.27,1.92c.33.48,1.32,1,3.33,1,2.58,0,4.31-.51,5.83-1.83s2.13-3.7,2.13-6.31a8.62,8.62,0,0,0-2.44-6.34,10.05,10.05,0,0,0-7.2-2.54,6.93,6.93,0,0,0-1.65.18.47.47,0,0,0-.3.51c0,.86,0,3.07,0,5.07Z"/><path class="cls-1" d="M213.39,41.31c0-3.86,0-4.57,0-5.38s-.26-1.27-1.09-1.44a4.59,4.59,0,0,0-1-.08c-.28,0-.43,0-.43-.23s.17-.23.55-.23c.69,0,1.43,0,2.06,0s1.24.05,1.6.05c.81,0,5.85,0,6.33,0a9.82,9.82,0,0,0,1.09-.15,3.06,3.06,0,0,1,.41-.1c.13,0,.15.1.15.23s-.12.48-.2,1.65c0,.25-.08,1.37-.13,1.67,0,.13-.07.28-.25.28s-.23-.13-.23-.36a2.66,2.66,0,0,0-.15-.91c-.18-.46-.43-.76-1.7-.91-.43,0-3.09-.1-3.6-.1-.13,0-.18.07-.18.25V42c0,.17,0,.27.18.27.56,0,3.47,0,4.06-.05s1-.12,1.21-.38.28-.33.41-.33.18.05.18.21-.1.55-.21,1.85c0,.5-.1,1.52-.1,1.7s0,.48-.23.48-.22-.1-.22-.23a7,7,0,0,0-.11-.91c-.12-.51-.48-.89-1.42-1-.48-.05-3-.08-3.6-.08-.12,0-.15.1-.15.26v2c0,.86,0,3.19,0,3.93,0,1.75.46,2.13,3,2.13a6.35,6.35,0,0,0,2.39-.31c.66-.3,1-.83,1.14-1.87,0-.28.1-.38.28-.38s.2.2.2.45a19.43,19.43,0,0,1-.33,2.82c-.18.66-.4.66-1.37.66-1.9,0-3.29-.05-4.38-.08s-1.88-.08-2.64-.08c-.28,0-.84,0-1.45,0s-1.24,0-1.75,0c-.33,0-.5-.08-.5-.25s.1-.21.4-.21a4.28,4.28,0,0,0,.92-.1c.5-.1.63-.66.73-1.39.13-1.07.13-3.07.13-5.4Z"/><path class="cls-1" d="M229.41,41.31c0-3.86,0-4.57,0-5.38s-.26-1.27-1.09-1.44a4.53,4.53,0,0,0-1-.08c-.28,0-.43,0-.43-.23s.18-.23.56-.23c1.34,0,2.94.08,3.65.08S233.44,34,235,34c3.17,0,7.4,0,10.17,2.89a9.07,9.07,0,0,1,2.46,6.44,10.09,10.09,0,0,1-2.77,7.08c-1.16,1.19-3.8,3-8.49,3-.91,0-2-.08-2.92-.15s-1.85-.16-2.48-.16c-.28,0-.84,0-1.45,0s-1.24,0-1.74,0c-.33,0-.51-.08-.51-.25s.1-.21.4-.21a4.28,4.28,0,0,0,.92-.1c.5-.1.63-.66.73-1.39.13-1.07.13-3.07.13-5.4Zm3.17,2.79c0,2.68,0,4.64,0,5.12a5.23,5.23,0,0,0,.28,1.92c.33.48,1.32,1,3.32,1,2.59,0,4.31-.51,5.83-1.83s2.13-3.7,2.13-6.31a8.62,8.62,0,0,0-2.43-6.34,10.08,10.08,0,0,0-7.2-2.54,6.8,6.8,0,0,0-1.65.18.46.46,0,0,0-.31.51c0,.86,0,3.07,0,5.07Z"/><path class="cls-1" d="M252.05,41.31c0-3.86,0-4.57-.05-5.38s-.26-1.27-1.09-1.44a4.59,4.59,0,0,0-1-.08c-.28,0-.43,0-.43-.23s.17-.23.55-.23c1.35,0,2.94.08,3.71.08.6,0,2.2-.08,3.11-.08.38,0,.56,0,.56.23s-.15.23-.4.23a3.22,3.22,0,0,0-.74.08c-.68.12-.89.55-.94,1.44s-.05,1.52-.05,5.38v3.55c0,3.67.74,5.22,2,6.23a4.69,4.69,0,0,0,3.17,1,5,5,0,0,0,3.5-1.37c1.39-1.39,1.47-3.67,1.47-6.28V41.31c0-3.86,0-4.57-.05-5.38s-.26-1.27-1.09-1.44a4.32,4.32,0,0,0-.92-.08c-.27,0-.43,0-.43-.23s.18-.23.54-.23c1.29,0,2.89.08,2.91.08.31,0,1.9-.08,2.89-.08.36,0,.53,0,.53.23s-.15.23-.45.23a3.28,3.28,0,0,0-.74.08c-.68.12-.88.55-.94,1.44s-.05,1.52-.05,5.38V44c0,2.81-.28,5.81-2.4,7.63a7.57,7.57,0,0,1-5.28,1.83,8.18,8.18,0,0,1-5.63-1.75c-1.29-1.17-2.25-3-2.25-6.72Z"/><path class="cls-1" d="M275.12,50.71a10,10,0,0,1-.18-14.42c1.82-1.68,4.23-2.69,8-2.69a25.53,25.53,0,0,1,3.68.25c1,.13,1.77.36,2.53.43.28,0,.38.15.38.31s-.07.5-.13,1.39,0,2.23-.07,2.74-.08.58-.31.58-.25-.2-.25-.55a3.57,3.57,0,0,0-1-2.34c-.83-.89-2.81-1.57-5.14-1.57a6.62,6.62,0,0,0-4.77,1.57c-1.85,1.7-2.33,4.11-2.33,6.57,0,6,4.59,9,8,9,2.26,0,3.63-.26,4.64-1.42a4.27,4.27,0,0,0,.86-1.68c.08-.4.13-.51.33-.51s.23.18.23.39a23.25,23.25,0,0,1-.56,3.37.86.86,0,0,1-.65.73,14.62,14.62,0,0,1-4.57.59C280.34,53.48,277.42,52.72,275.12,50.71Z"/><path class="cls-1" d="M296.79,46.66c-.13,0-.18.05-.23.2l-1.37,3.47a5,5,0,0,0-.38,1.55c0,.46.23.78,1,.78h.38c.3,0,.38.06.38.21s-.16.25-.43.25c-.82,0-1.91-.08-2.69-.08-.28,0-1.68.08-3,.08-.33,0-.48,0-.48-.25s.1-.21.3-.21a6.7,6.7,0,0,0,.79,0c1.16-.15,1.64-1,2.15-2.28l6.36-15.72c.31-.73.46-1,.71-1s.38.23.64.81c.61,1.39,4.66,11.54,6.29,15.39,1,2.28,1.69,2.64,2.23,2.76a5.23,5.23,0,0,0,1.06.1c.2,0,.33,0,.33.21s-.23.25-1.16.25-2.77,0-4.8,0c-.45,0-.76,0-.76-.2s.1-.21.36-.23a.42.42,0,0,0,.23-.58l-2-5.23a.25.25,0,0,0-.26-.17ZM302,45.39c.13,0,.15-.08.13-.15L299.81,39c0-.1-.05-.23-.13-.23s-.13.13-.15.23l-2.33,6.21c0,.1,0,.18.1.18Z"/><path class="cls-1" d="M315.24,35.37l-3.77.1c-1.47.05-2.08.18-2.46.74a2.75,2.75,0,0,0-.43.89c-.05.2-.13.3-.28.3s-.23-.13-.23-.4.48-2.72.53-2.92.15-.48.31-.48a5.71,5.71,0,0,0,1.09.3,25.16,25.16,0,0,0,2.53.13h10a12.16,12.16,0,0,0,1.75-.13c.38-.07.59-.12.69-.12s.2.15.2.53-.08,2.28-.08,2.94c0,.25-.07.4-.22.4s-.26-.12-.28-.5l0-.28c-.05-.66-.73-1.37-3-1.42l-3.2-.08v10.4c0,2.33,0,4.33.13,5.42.08.71.23,1.27,1,1.37a10.7,10.7,0,0,0,1.29.1c.28,0,.41.08.41.21s-.2.25-.48.25c-1.68,0-3.27-.08-4-.08s-2.18.08-3.2.08c-.33,0-.51-.08-.51-.25s.11-.21.41-.21a4.18,4.18,0,0,0,.91-.1c.51-.1.66-.66.74-1.39.12-1.07.12-3.07.12-5.4Z"/><path class="cls-1" d="M329.87,41.31c0-3.86,0-4.57-.05-5.38s-.3-1.29-.86-1.42a3.43,3.43,0,0,0-.91-.1c-.26,0-.41,0-.41-.25s.2-.21.61-.21c1,0,2.56.08,3.3.08s2.12-.08,3.09-.08c.33,0,.53,0,.53.21s-.15.25-.41.25a3.64,3.64,0,0,0-.76.08c-.68.12-.88.55-.93,1.44s-.05,1.52-.05,5.38v4.46c0,2.46,0,4.46.1,5.55.07.69.25,1.14,1,1.24a10.87,10.87,0,0,0,1.29.1c.28,0,.41.08.41.21s-.2.25-.48.25c-1.68,0-3.27-.08-4-.08s-2.18.08-3.19.08c-.33,0-.51-.08-.51-.25s.1-.21.41-.21a4.18,4.18,0,0,0,.91-.1c.51-.1.66-.53.73-1.26.13-1.07.13-3.07.13-5.53Z"/><path class="cls-1" d="M338.31,43.54c0-4.34,2.87-9.94,10.47-9.94,6.32,0,10.25,3.67,10.25,9.48s-4.06,10.4-10.5,10.4C341.25,53.48,338.31,48,338.31,43.54Zm17.17.48c0-5.68-3.27-9.2-7.43-9.2-2.92,0-6.24,1.62-6.24,7.93,0,5.27,2.92,9.46,7.79,9.46C351.37,52.21,355.48,51.35,355.48,44Z"/><path class="cls-1" d="M365.74,49.67c.05,2,.38,2.64.89,2.82a4.06,4.06,0,0,0,1.32.17c.28,0,.43.06.43.21s-.23.25-.58.25c-1.65,0-2.67-.08-3.15-.08-.23,0-1.42.08-2.74.08-.33,0-.55,0-.55-.25s.15-.21.4-.21a4.52,4.52,0,0,0,1.14-.12c.66-.2.76-.94.79-3.15l.23-14.93c0-.51.07-.86.33-.86s.5.33.94.78,4.15,4.39,7.85,8.07c1.73,1.72,5.15,5.37,5.58,5.78h.13l-.25-11.39c0-1.54-.26-2-.87-2.28a4.15,4.15,0,0,0-1.34-.15c-.3,0-.41-.08-.41-.23s.28-.23.66-.23c1.32,0,2.54.08,3.07.08.28,0,1.24-.08,2.49-.08.33,0,.58,0,.58.23s-.15.23-.46.23a2.66,2.66,0,0,0-.76.08c-.71.2-.91.73-.94,2.15l-.27,16c0,.56-.11.79-.33.79s-.59-.28-.87-.56c-1.59-1.52-4.84-4.85-7.48-7.46s-5.57-5.83-6-6.31h-.08Z"/><path class="cls-1" d="M11,65.78H7.86v7H5.72v-7H2.6V64.2H11Z"/><path class="cls-1" d="M21.18,72.81H14.83V64.2H21.1v1.58H17v1.8h3.93v1.58H17v2.07h4.2Z"/><path class="cls-1" d="M34.22,72.81H31.9l-.7-1.7H27.35l-.65,1.7H24.43L27.9,64.2h2.49Zm-5-6.55L27.91,69.6h2.66Z"/><path class="cls-1" d="M45.26,72.07a6.74,6.74,0,0,1-3.38.85c-3.35,0-5-2.17-5-4.39s1.88-4.44,5.17-4.44a6.11,6.11,0,0,1,3.12.75v1.92a6,6,0,0,0-3-.88c-1.84,0-3.12,1.09-3.12,2.61s1.27,2.64,3.07,2.64a6.58,6.58,0,0,0,3.11-.95Z"/><path class="cls-1" d="M58.09,72.81H56V69.33h-4.3v3.48H49.51V64.2h2.14v3.46H56V64.2h2.14Z"/><path class="cls-1" d="M68.91,72.81H62.56V64.2h6.26v1.58H64.71v1.8h3.93v1.58H64.71v2.07h4.2Z"/><path class="cls-1" d="M76.93,64.2a2.58,2.58,0,0,1,2.82,2.47,2.23,2.23,0,0,1-1.48,2.11c.88.45,1.15,1.51,2.36,4H78.27c-.92-1.84-1.26-3.5-2.43-3.5h-.61v3.5H73.08V64.2Zm-1.7,3.54h1.13c.6,0,1.18-.26,1.18-1s-.42-1-1.23-1H75.23Z"/><path class="cls-1" d="M89.94,66.43a6.78,6.78,0,0,0-2.73-.77c-.77,0-1.26.28-1.26.71,0,1.3,4.38.94,4.38,3.94,0,1.66-1.39,2.61-3.31,2.61a5.88,5.88,0,0,1-3.11-.83V70.24a5,5,0,0,0,3,1.11c.82,0,1.26-.29,1.26-.8,0-1.41-4.38-.9-4.38-4,0-1.49,1.28-2.47,3.28-2.47a7,7,0,0,1,2.92.67Z"/><path class="cls-1" d="M108.37,72.07a6.76,6.76,0,0,1-3.38.85c-3.35,0-5-2.17-5-4.39s1.89-4.44,5.18-4.44a6.13,6.13,0,0,1,3.12.75v1.92a6,6,0,0,0-3-.88c-1.83,0-3.12,1.09-3.12,2.61a2.77,2.77,0,0,0,3.07,2.64,6.62,6.62,0,0,0,3.12-.95Z"/><path class="cls-1" d="M117.17,72.92c-3.16,0-4.94-2.22-4.94-4.41a5,5,0,1,1,4.94,4.41Zm0-7a2.63,2.63,0,1,0,2.72,2.63A2.53,2.53,0,0,0,117.17,65.88Z"/><path class="cls-1" d="M132.74,72.81h-6.57V64.2h2.15v7h4.42Z"/><path class="cls-1" d="M143,72.81h-6.57V64.2h2.15v7H143Z"/><path class="cls-1" d="M153.13,72.81h-6.35V64.2H153v1.58h-4.11v1.8h3.92v1.58h-3.92v2.07h4.2Z"/><path class="cls-1" d="M165.52,66.67a7.34,7.34,0,0,0-3.22-.79c-2.34,0-3.16,1.44-3.16,2.71,0,1.53,1.2,2.54,3,2.54a3.2,3.2,0,0,0,1.43-.3v-1H162.3V68.24h3.39v3.52a5.67,5.67,0,0,1-3.62,1.16c-3,0-5.14-1.83-5.14-4.4s2.12-4.43,5.19-4.43a8.27,8.27,0,0,1,3.4.7Z"/><path class="cls-1" d="M176.47,72.81h-6.36V64.2h6.27v1.58h-4.12v1.8h3.93v1.58h-3.93v2.07h4.21Z"/><path class="cls-1" d="M193.59,68.45c0,2.78,1.73,4.26,3.8,4.26a3,3,0,0,0,2.84-1.94.16.16,0,0,1,.23,0,5.1,5.1,0,0,1-.61,1.78c-.15,0-.31.08-.45.12a7.85,7.85,0,0,1-2.05.29,5.37,5.37,0,0,1-3.12-.87,4.09,4.09,0,0,1-1.79-3.55,4.17,4.17,0,0,1,1.6-3.31,5.46,5.46,0,0,1,3.44-1.08,11.22,11.22,0,0,1,2.24.25.83.83,0,0,0,.32,0,17.89,17.89,0,0,0,.2,1.82s-.17,0-.23,0c-.21-.8-.75-1.85-2.71-1.85S193.59,65.76,193.59,68.45Z"/><path class="cls-1" d="M212.67,68.54A4.31,4.31,0,0,1,208.26,73a4.24,4.24,0,0,1-4.46-4.32,4.39,4.39,0,0,1,4.49-4.49A4.17,4.17,0,0,1,212.67,68.54Zm-7.73-.3c0,2,.93,4.47,3.45,4.47,1.64,0,3.13-1.09,3.13-3.82,0-2-.93-4.41-3.42-4.41C206.69,64.48,204.94,65.37,204.94,68.24Z"/><path class="cls-1" d="M218.53,70.81a2.82,2.82,0,0,0,.2,1.4c.13.14.41.29,1.53.29,1.41,0,1.83-.09,2.43-1.45a.22.22,0,0,1,.23,0,7.43,7.43,0,0,1-.54,1.73l-1.42,0H218l-1.6,0c-.06,0-.06-.14,0-.2l.37,0a1,1,0,0,0,.6-.25,3.94,3.94,0,0,0,.18-1.57V66.43a3.88,3.88,0,0,0-.18-1.57,1,1,0,0,0-.6-.25l-.37,0c0-.08,0-.15,0-.2l1.61,0c.55,0,1,0,1.54,0,.07,0,.07.12,0,.2l-.3,0a1,1,0,0,0-.6.25,4,4,0,0,0-.17,1.57Z"/><path class="cls-1" d="M233.69,69.18a4.2,4.2,0,0,1-.83,2.9,3.38,3.38,0,0,1-2.47.92,3,3,0,0,1-3.4-3.59v-3a3.7,3.7,0,0,0-.18-1.57,1,1,0,0,0-.59-.25l-.28,0c-.05-.08-.05-.15,0-.2.6,0,1,0,1.53,0s1,0,1.56,0c.07,0,.07.12,0,.2l-.32,0a1,1,0,0,0-.6.25,3.94,3.94,0,0,0-.18,1.57v2.79c0,2,.68,3.36,2.65,3.36s2.67-1.44,2.67-3.37V67.53a9.81,9.81,0,0,0-.24-2.64.93.93,0,0,0-.64-.28l-.38,0c-.05,0,0-.18,0-.2l1.47,0c.47,0,.81,0,1.25,0a.15.15,0,0,1,0,.2l-.34.06c-.25,0-.49.16-.54.28a11.66,11.66,0,0,0-.19,2.63Z"/><path class="cls-1" d="M238.3,72.58a1.07,1.07,0,0,0,.58-.24,1.94,1.94,0,0,0,.25-.91c.06-.63.12-1.66.19-3,0-.86.09-2,.1-2.7a1.34,1.34,0,0,0-.2-.84,1.44,1.44,0,0,0-.68-.28l-.25-.06a.14.14,0,0,1,0-.2c.18,0,.54,0,1,0,.3,0,.74,0,1,0a9.39,9.39,0,0,0,1,2.72l1.1,2.33c.48,1,.74,1.5.94,1.92.25-.42.65-1.22,1.09-2.11l.92-1.85a16.74,16.74,0,0,0,1.31-3,7.51,7.51,0,0,0,.78,0c.24,0,.8,0,1.13,0a.14.14,0,0,1,0,.2l-.38.08a1.26,1.26,0,0,0-.55.24c-.17.15-.21.48-.22,1,0,.37,0,1.4,0,2s.05,2.41.1,3.58a1.83,1.83,0,0,0,.17.91.71.71,0,0,0,.43.19l.43.08a.15.15,0,0,1,0,.2l-1.47,0c-.51,0-1,0-1.5,0a.13.13,0,0,1,0-.2l.4-.06c.3,0,.51-.14.55-.32a4,4,0,0,0,.05-.79l0-4.69a3.27,3.27,0,0,0,0-.75c-.16.32-.59,1.12-.88,1.72L244.51,70c-.55,1.11-1.14,2.32-1.35,2.92a.15.15,0,0,1-.19,0c-.25-.7-.85-2-1.14-2.59l-1.19-2.61a9.91,9.91,0,0,0-.83-1.74c0,.15-.1,1.81-.11,2.34,0,.78-.06,1.91-.06,2.8a3.31,3.31,0,0,0,.09,1.15.63.63,0,0,0,.49.3l.49.08c0,.06,0,.17,0,.2-.44,0-.93,0-1.42,0s-.81,0-1.26,0c-.06,0-.07-.15,0-.2Z"/><path class="cls-1" d="M253.4,66.72c0-1.44-.12-1.66-.18-1.74a.64.64,0,0,0-.43-.24l-.45-.08a.14.14,0,0,1,0-.2c.56,0,1.34-.1,2.54-.1a5.36,5.36,0,0,1,2.26.34,1.7,1.7,0,0,1,1,1.6,1.91,1.91,0,0,1-1.28,1.75c-.08.12.09.18.21.2a2.08,2.08,0,0,1,1.72,2.11c0,1.54-1.09,2.49-3.31,2.49l-.68,0-.74,0c-.65,0-1,0-1.72,0a.14.14,0,0,1,0-.2l.34-.06a1,1,0,0,0,.55-.24,3.79,3.79,0,0,0,.18-1.55Zm1,1.07c0,.35,0,.36.57.36,1.46,0,2.16-.42,2.16-1.68a1.74,1.74,0,0,0-2-1.82c-.32,0-.65,0-.68.13s-.09.15-.09.43Zm0,3a2.58,2.58,0,0,0,.23,1.43,1.42,1.42,0,0,0,1.13.34,1.78,1.78,0,0,0,2-1.92c0-1-.48-2.19-2.53-2.19-.78,0-.81,0-.81.32Z"/><path class="cls-1" d="M264.45,70.76a3.94,3.94,0,0,0,.18,1.57,1,1,0,0,0,.6.25l.31,0c0,.06,0,.17,0,.2l-1.55,0-1.56,0c-.06,0-.06-.14,0-.2l.32,0a1,1,0,0,0,.59-.25,3.94,3.94,0,0,0,.18-1.57V66.43a3.88,3.88,0,0,0-.18-1.57,1,1,0,0,0-.59-.25l-.31,0c0-.08,0-.15,0-.2.63,0,1,0,1.56,0s1,0,1.56,0c.07,0,.07.12,0,.2l-.31,0a1,1,0,0,0-.6.25,3.94,3.94,0,0,0-.18,1.57Z"/><path class="cls-1" d="M271.3,69.41c-.31,0-.33,0-.41.27l-.67,2a2,2,0,0,0-.14.63c0,.14.09.21.38.26l.47.08a.16.16,0,0,1,0,.2c-.35,0-.74,0-1.26,0s-.82,0-1.2,0a.15.15,0,0,1,0-.2l.48-.11c.3-.07.44-.14.67-.68s.53-1.25,1.14-2.83L272,65.64a1.8,1.8,0,0,0,.2-1,1.21,1.21,0,0,0,.61-.48.16.16,0,0,1,.17.11c.08.22.23.76.65,2l1.67,4.84c.38,1.11.52,1.34,1,1.44l.38.06a.15.15,0,0,1,0,.2c-.39,0-.81,0-1.48,0-.51,0-1,0-1.38,0a.14.14,0,0,1,0-.2l.37-.08c.27,0,.42-.11.42-.3a2.41,2.41,0,0,0-.17-.68l-.61-1.89c-.09-.27-.12-.27-.4-.27Zm2-.4c.34,0,.33,0,.22-.34l-.72-2.12a7.65,7.65,0,0,0-.34-1c-.05.12-.28.61-.51,1.26l-.66,1.84c-.13.32-.13.33.24.33Z"/><path class="cls-1" d="M293,69.18a4.2,4.2,0,0,1-.83,2.9,3.38,3.38,0,0,1-2.47.92,3,3,0,0,1-3.39-3.59v-3a3.88,3.88,0,0,0-.18-1.57,1,1,0,0,0-.6-.25l-.28,0c0-.08,0-.15,0-.2.6,0,1,0,1.53,0s1,0,1.57,0c.06,0,.06.12,0,.2l-.32,0a1,1,0,0,0-.6.25,3.94,3.94,0,0,0-.18,1.57v2.79c0,2,.68,3.36,2.65,3.36s2.67-1.44,2.67-3.37V67.53a9.81,9.81,0,0,0-.24-2.64.93.93,0,0,0-.63-.28l-.39,0c-.05,0,0-.18,0-.2l1.46,0c.47,0,.82,0,1.25,0a.15.15,0,0,1,0,.2l-.34.06c-.24,0-.49.16-.54.28a11.66,11.66,0,0,0-.19,2.63Z"/><path class="cls-1" d="M305.32,70.63c0,.38,0,2,.05,2.24,0,.07-.06.12-.17.13A15.28,15.28,0,0,0,304,71.45l-3.43-3.86c-.95-1.08-1.21-1.39-1.44-1.59-.12,0-.12.19-.12.79v2.87a9.81,9.81,0,0,0,.24,2.64.93.93,0,0,0,.63.28l.39,0c0,.05,0,.18,0,.2l-1.46,0c-.47,0-.82,0-1.25,0a.15.15,0,0,1,0-.2l.34-.06c.24,0,.49-.16.54-.28a11.66,11.66,0,0,0,.19-2.63V67c0-1.32,0-1.77-.35-2.09a1.71,1.71,0,0,0-.75-.29l-.26,0a.13.13,0,0,1,0-.2c.43,0,.84,0,1.26,0a6.34,6.34,0,0,0,.69,0,13.73,13.73,0,0,0,2.15,2.75l1.26,1.38c.6.66,1.94,2.17,2.27,2.49a1.58,1.58,0,0,0,.06-.67V67.53a9.81,9.81,0,0,0-.24-2.64.93.93,0,0,0-.64-.28l-.38,0s0-.18,0-.2c.51,0,1,0,1.47,0s.81,0,1.25,0a.15.15,0,0,1,0,.2l-.35.06c-.24,0-.48.16-.53.28a11.66,11.66,0,0,0-.19,2.63Z"/><path class="cls-1" d="M312.05,70.76a3.94,3.94,0,0,0,.18,1.57,1,1,0,0,0,.6.25l.32,0c0,.06,0,.17,0,.2l-1.55,0-1.55,0c-.07,0-.07-.14,0-.2l.32,0a1,1,0,0,0,.6-.25,3.94,3.94,0,0,0,.18-1.57V66.43a3.88,3.88,0,0,0-.18-1.57,1,1,0,0,0-.6-.25l-.31,0c-.05-.08-.05-.15,0-.2.62,0,1,0,1.55,0s1,0,1.57,0c.06,0,.06.12,0,.2l-.32,0a1,1,0,0,0-.6.25,3.94,3.94,0,0,0-.18,1.57Z"/><path class="cls-1" d="M317.82,66.38c-.32-.79-.46-1.13-.58-1.35a.85.85,0,0,0-.59-.39l-.38-.08c0-.08,0-.17,0-.2.39,0,.81,0,1.34,0s.94,0,1.41,0a.14.14,0,0,1,0,.2l-.34.08c-.28,0-.4.07-.4.24a11.26,11.26,0,0,0,.66,1.84l1.25,3.11c.29.73.52,1.21.58,1.36.1-.2.27-.55.56-1.23l.72-1.68c.63-1.51.93-2.3,1.13-2.86a2.1,2.1,0,0,0,.14-.58c0-.09-.14-.15-.41-.2l-.39-.08c-.05,0-.05-.17,0-.2l1.28,0c.42,0,.8,0,1.18,0a.17.17,0,0,1,0,.2l-.39.06a.83.83,0,0,0-.7.52c-.18.34-.82,1.63-1.37,2.92l-.69,1.58c-.51,1.16-1.08,2.65-1.3,3.32a.14.14,0,0,1-.11,0,.17.17,0,0,1-.12,0,14.23,14.23,0,0,0-.6-1.69Z"/><path class="cls-1" d="M329,66.41a3.4,3.4,0,0,0-.18-1.51.88.88,0,0,0-.58-.29l-.24,0a.14.14,0,0,1,0-.2l.79,0h3.08c.82,0,1.53,0,1.72,0,.05.21.13,1.13.19,1.61a.23.23,0,0,1-.23,0c-.14-.57-.34-1.07-1-1.22a5.44,5.44,0,0,0-1.25-.1h-.7c-.43,0-.52,0-.55.16a4.58,4.58,0,0,0-.06.93v2c0,.39,0,.43.38.43h.71a5.16,5.16,0,0,0,1.18-.09c.12,0,.26-.17.35-.48l.13-.49a.21.21,0,0,1,.23,0c0,.26,0,.77,0,1.24s0,1,0,1.23a.2.2,0,0,1-.23,0l-.14-.51c-.08-.26-.18-.4-.34-.46a3.87,3.87,0,0,0-1.18-.13h-.71c-.37,0-.38,0-.38.43v1.8a2.57,2.57,0,0,0,.22,1.4c.14.15.39.29,1.5.29,1.54,0,2.11-.14,2.66-1.45.06,0,.22,0,.23.07a6.68,6.68,0,0,1-.54,1.71l-1.68,0h-2.81c-.64,0-1.21,0-1.8,0a.14.14,0,0,1,0-.2l.51-.08a.93.93,0,0,0,.57-.24,3.59,3.59,0,0,0,.19-1.53Z"/><path class="cls-1" d="M338.9,66.41a4,4,0,0,0-.15-1.42.64.64,0,0,0-.56-.3l-.29,0a.14.14,0,0,1,0-.2c1-.09,1.85-.1,2.87-.1a4.66,4.66,0,0,1,2.05.36,2,2,0,0,1,1.05,1.84,2.31,2.31,0,0,1-1.58,2.07.35.35,0,0,0,.05.32A14.79,14.79,0,0,0,345,72.4a1.4,1.4,0,0,0,1,.32s0,.13,0,.15a2.34,2.34,0,0,1-.52.07c-1.17,0-1.79-.32-2.69-1.61-.33-.47-.86-1.33-1.27-1.93a.85.85,0,0,0-.86-.44c-.68,0-.71,0-.71.32v1.48a3.94,3.94,0,0,0,.18,1.57,1,1,0,0,0,.6.25l.25,0c0,.06,0,.17,0,.2-.6,0-1,0-1.49,0l-1.55,0c-.07,0-.07-.14,0-.2l.32,0a1,1,0,0,0,.6-.25,4,4,0,0,0,.17-1.57Zm1,1.84a.5.5,0,0,0,.07.33,1.9,1.9,0,0,0,.84.09,2.19,2.19,0,0,0,1.37-.33,1.84,1.84,0,0,0,.66-1.62,1.94,1.94,0,0,0-2-2.07,1.88,1.88,0,0,0-.81.11c-.07,0-.09.21-.1.66Z"/><path class="cls-1" d="M352.68,64.33l.43.08a5.36,5.36,0,0,1,.23,1.49.17.17,0,0,1-.23,0,1.77,1.77,0,0,0-1.79-1.44A1.43,1.43,0,0,0,349.79,66a2.07,2.07,0,0,0,1.09,1.6l1.2.74a2.76,2.76,0,0,1,1.39,2.32A2.39,2.39,0,0,1,350.78,73a3.64,3.64,0,0,1-1.87-.47,3.35,3.35,0,0,1-.37-1.72.15.15,0,0,1,.22,0A2.51,2.51,0,0,0,351,72.71a1.51,1.51,0,0,0,1.61-1.59,2,2,0,0,0-1.07-1.83l-1.12-.7A2.58,2.58,0,0,1,349,66.34a2.25,2.25,0,0,1,2.51-2.15A5.34,5.34,0,0,1,352.68,64.33Z"/><path class="cls-1" d="M359.44,70.76a3.94,3.94,0,0,0,.18,1.57,1,1,0,0,0,.6.25l.32,0c0,.06,0,.17,0,.2l-1.55,0-1.56,0c-.06,0-.06-.14,0-.2l.32,0a1,1,0,0,0,.59-.25,3.94,3.94,0,0,0,.18-1.57V66.43a3.88,3.88,0,0,0-.18-1.57,1,1,0,0,0-.59-.25l-.31,0c-.05-.08-.05-.15,0-.2.63,0,1,0,1.56,0s1,0,1.56,0c.07,0,.07.12,0,.2l-.32,0a1,1,0,0,0-.6.25,3.94,3.94,0,0,0-.18,1.57Z"/><path class="cls-1" d="M370.59,64.39a3.44,3.44,0,0,0,.89-.07.5.5,0,0,0,.28-.26c.06,0,.16,0,.18,0a7.1,7.1,0,0,0-.19,1.83.17.17,0,0,1-.23,0,1.71,1.71,0,0,0-.34-.93,2.31,2.31,0,0,0-1.52-.34h-.87c-.39,0-.4,0-.4.49v5.6a3.85,3.85,0,0,0,.18,1.56,1,1,0,0,0,.6.24l.43,0a.14.14,0,0,1,0,.2c-.55,0-1,0-1.67,0s-1.26,0-1.78,0a.13.13,0,0,1,0-.2l.56-.06a.92.92,0,0,0,.57-.23,3.88,3.88,0,0,0,.17-1.56v-5.6c0-.48,0-.49-.39-.49h-.74c-.79,0-1.34,0-1.6.31a3.12,3.12,0,0,0-.6.91c-.08,0-.21,0-.23-.09a9.7,9.7,0,0,0,.48-1.74.15.15,0,0,1,.18,0,.39.39,0,0,0,.22.22,3.49,3.49,0,0,0,.91.09Z"/><path class="cls-1" d="M379,70.78a3.85,3.85,0,0,0,.18,1.56,1,1,0,0,0,.6.23l.52.06a.13.13,0,0,1,0,.2c-.52,0-1,0-1.71,0s-1,0-1.67,0c-.07,0-.08-.15,0-.2l.43-.06a1,1,0,0,0,.57-.23,4.07,4.07,0,0,0,.17-1.56v-.57a4.23,4.23,0,0,0,0-.63,4,4,0,0,0-.36-1L376.3,66a4.64,4.64,0,0,0-.68-1.11,1.11,1.11,0,0,0-.54-.25l-.35-.08c-.05-.06,0-.18,0-.2.35,0,.84,0,1.37,0s1,0,1.4,0a.13.13,0,0,1,0,.2l-.41.1c-.21,0-.31.1-.31.19a4,4,0,0,0,.42,1.06c.49,1,1,2,1.48,2.94.43-.75.84-1.5,1.27-2.27a8.73,8.73,0,0,0,.8-1.73c0-.09-.15-.15-.39-.2l-.41-.09a.13.13,0,0,1,0-.2l1.22,0c.39,0,.75,0,1.11,0a.14.14,0,0,1,0,.2l-.37.1a.92.92,0,0,0-.63.46c-.64.9-1.19,1.88-1.75,2.84a4.42,4.42,0,0,0-.61,1.33,6.31,6.31,0,0,0,0,.91Z"/><line class="cls-2" x1="383.24" y1="59.15" x2="0.76" y2="59.15"/></svg>